<svg width="100" height="100" viewBox="0 0 100 100" fill="none" xmlns="http://www.w3.org/2000/svg">
<rect width="100" height="100" rx="16" fill="#048243"/>
<rect width="100" height="100" rx="16" fill="url(#paint0_linear)"/>
<mask id="path-2-inside-1" fill="white">
<path d="M4.53126 5.64453C4.1797 5.70312 3.88673 5.82031 3.90626 5.89844C3.90626 5.99609 3.90626 13.8477 3.90626 23.3789L3.92579 40.7227L8.53516 43.75L13.1641 46.7773L22.6367 48.457L32.1094 50.1172L32.793 51.0742C33.4961 52.0508 33.4766 52.0508 32.1289 51.1328C31.4453 50.6836 30.293 50.4102 23.5742 49.1211C19.2774 48.3008 15.7422 47.6758 15.7031 47.7148C15.6445 47.7734 15.9766 49.7852 16.4258 52.2266L17.2656 56.6211L22.5781 61.1719L27.8906 65.7227L30.7031 65.5078C32.2266 65.3906 33.5547 65.3516 33.6328 65.4102C33.7109 65.4688 34.1797 68.7305 34.668 72.6562C35.1563 76.582 35.6055 79.9609 35.6445 80.1758C35.6836 80.3906 36.6602 81.6797 37.7734 83.0273L39.8438 85.5078L39.5703 86.25L39.3164 87.0117L40.7813 88.9648C41.582 90.0391 42.3828 91.0352 42.5586 91.1719C42.7344 91.3086 43.3984 92.3242 44.043 93.418L45.2344 95.4102L50.0195 95.4688L54.7852 95.5078L55.8594 93.7109C56.4453 92.7148 57.207 91.582 57.5391 91.2109C57.8711 90.8398 58.7305 89.7461 59.4727 88.8086C60.7813 87.0898 60.8008 87.0703 60.5664 86.3477C60.4492 85.9375 60.3516 85.5078 60.3516 85.3906C60.3516 85.293 61.2305 84.1406 62.3047 82.8516L64.2578 80.4883L65.1758 73.1445C65.6836 69.082 66.1914 65.6641 66.3086 65.5273C66.4649 65.332 67.0899 65.3125 69.2774 65.4688L72.0508 65.6641L76.8945 61.5039C79.5508 59.2383 81.9336 57.168 82.1875 56.9336C82.5781 56.5625 82.7734 55.8203 83.4961 52.0312C83.9844 49.5898 84.3359 47.5586 84.3164 47.5391C84.2969 47.5391 80.7422 48.1836 76.4063 49.0234C69.043 50.4297 68.4961 50.5664 67.6953 51.1328C67.2266 51.4844 66.7774 51.7578 66.6992 51.7578C66.6406 51.7578 66.8555 51.3672 67.1875 50.8789C67.5195 50.3906 67.8516 50 67.9297 50C68.0078 50 72.2461 49.2578 77.3828 48.3594L86.6797 46.7383L91.3867 43.6523L96.0938 40.5664V23.1445V5.72266L95 5.58594C94.3945 5.50781 93.8672 5.48828 93.8281 5.52734C93.7891 5.56641 92.4024 11.8945 90.7422 19.5898L87.7344 33.5742L86.5039 35C85.8399 35.7812 85.2149 36.4453 85.1367 36.4844C85.0586 36.5234 84.8828 36.2109 84.7656 35.8008C84.375 34.3555 79.9414 20.8789 79.8242 20.7812C79.7656 20.7227 79.2188 20.7617 78.6328 20.8984L77.5391 21.1133L77.6367 22.1289C77.832 23.8867 78.9258 40.0977 78.8672 40.1367C78.7305 40.2539 74.6094 40.8984 74.5703 40.8008C74.5313 40.7617 73.2031 39.3945 71.6211 37.7539L68.7305 34.8047L68.8477 31.8164C68.9063 30.1562 69.0039 27.8711 69.0625 26.6992L69.1602 24.6094H68.0274H66.8945L64.5117 31.4258C63.1836 35.1562 62.1094 38.3008 62.1094 38.3984C62.1094 38.4961 62.7344 39.2773 63.4766 40.1367C64.375 41.1719 64.7461 41.7383 64.5899 41.8164C64.4727 41.8945 63.1836 42.0508 61.7578 42.1875L59.1797 42.4414L56.4063 46.8164L53.6328 51.1719H50H46.3672L43.5938 46.8164L40.8203 42.4414L38.2422 42.1875C36.8164 42.0508 35.5274 41.875 35.3906 41.8164C35.2149 41.7188 35.5664 41.2109 36.5234 40.1172C37.2656 39.2773 37.8906 38.4961 37.8906 38.3984C37.8906 38.3008 36.8164 35.1562 35.5078 31.4062L33.1055 24.6094H31.9531H30.8008L30.9375 26.2109C30.9961 27.1094 31.0547 29.3945 31.0742 31.3086L31.0938 34.7852L29.5313 36.4844C28.6719 37.4219 27.3438 38.7891 26.582 39.5312L25.2149 40.8789L23.1641 40.5273L21.0938 40.1758V39.4727C21.0938 39.082 21.3477 35.0781 21.6797 30.5664C21.9922 26.0547 22.2656 22.0898 22.2656 21.7578C22.2656 21.0742 22.1484 20.9961 20.8789 20.8008L20.0195 20.6836L17.5 28.6133C16.1133 32.9688 14.9219 36.5039 14.8438 36.4844C14.7656 36.4453 14.1602 35.7812 13.4961 35L12.2656 33.5742L9.19923 19.5117L6.15235 5.46875L5.66407 5.48828C5.39063 5.50781 4.88282 5.56641 4.53126 5.64453ZM93.75 28.2227V39.2578L89.8047 41.8945L85.8399 44.5117L76.1719 46.1914C70.8594 47.1289 66.4063 47.9883 66.2695 48.1055C66.1524 48.2422 64.9805 49.9219 63.6719 51.8359L61.2891 55.3516L61.7383 55.6836C62.168 56.0156 62.1875 56.0352 61.8555 56.4062C61.4063 56.8945 61.4258 56.9727 62.0703 57.3047C62.6172 57.5977 62.6563 57.5586 66.0547 55.1562L69.4922 52.7344L73.1445 52.0312C75.1563 51.6602 76.8359 51.3867 76.875 51.4258C76.9141 51.4648 74.5313 52.9688 71.582 54.7852C68.6328 56.582 66.2109 58.1055 66.2109 58.1445C66.2109 58.3984 67.2461 59.9609 67.4219 59.9609C67.5781 59.9609 78.2617 53.4961 80.6445 51.9727L81.1133 51.6797L80.9766 52.6367C80.625 55.2734 80.8203 55.0391 75.7813 59.3555L71.1914 63.3008L70.2149 63.2031C69.6875 63.1445 68.2813 63.0469 67.0899 62.9688L64.9414 62.8516L64.5703 63.5547L64.1992 64.2578H61.7969H59.375L58.3984 65.5664C57.4805 66.8164 53.9063 73.7695 53.9063 74.3164C53.9063 74.4727 54.8828 77.2852 56.0547 80.5859L58.2227 86.582L57.3438 87.6758L56.4844 88.7695L50.0586 88.8281L43.6328 88.8672L42.9102 87.8906C42.5 87.3438 42.1289 86.7969 42.0703 86.6602C42.0313 86.5234 42.9492 83.6914 44.1211 80.3711L46.2695 74.3164L44.6094 70.8008C43.6914 68.8672 42.4609 66.6016 41.875 65.7617L40.8008 64.2578H38.2617H35.7227L35.4297 63.5547L35.1367 62.832L33.3399 62.9688C32.3438 63.0469 30.8789 63.1445 30.0781 63.2031L28.6133 63.3203L24.0234 59.3359L19.4531 55.3711L19.1016 53.6133C18.9063 52.6367 18.7695 51.7383 18.7891 51.6211C18.8281 51.4844 21.8945 53.2422 25.9766 55.7422L33.1055 60.1172L33.6524 59.2383C33.9649 58.75 34.1602 58.2617 34.1211 58.125C34.0625 58.0078 31.7383 56.5039 28.9258 54.8047C26.1133 53.0859 23.8477 51.6602 23.8867 51.6406C23.9258 51.6016 25.3906 51.8555 27.168 52.1875L30.3711 52.793L33.9453 55.3125L37.5195 57.832L38.0664 57.3828C38.3789 57.1289 38.7891 56.8359 38.9844 56.7188C39.3164 56.5234 39.1602 56.2109 36.9336 52.9102C35.5859 50.9375 34.2774 49.0234 33.9844 48.6523L33.457 47.9688L23.7695 46.2695L14.0625 44.5703L10.1563 41.9922L6.25001 39.3945L6.26954 28.3398C6.26954 22.2656 6.3086 17.3633 6.34766 17.4805C6.38673 17.5781 7.22657 21.4062 8.22266 25.9766C9.19923 30.5469 10.1367 34.4922 10.293 34.7461C10.7422 35.4492 15.6641 41.2109 15.8008 41.2109C15.8789 41.2109 16.6406 39.043 17.4805 36.3672C19.1602 31.0352 19.3945 30.4883 19.2383 31.9336C18.9258 34.8828 18.5547 41.875 18.6914 41.9922C18.9063 42.1875 25.6641 43.418 26.0352 43.3203C26.1719 43.3008 27.9492 41.543 29.9414 39.4531L33.5938 35.6445L33.4766 34.2773C33.418 33.3594 33.4375 33.0078 33.5547 33.2031C33.8281 33.6133 35.1563 37.4805 35.1563 37.832C35.1563 37.9883 34.1016 39.3164 32.8125 40.7812C31.5234 42.2461 30.4688 43.4961 30.4688 43.5547C30.4688 43.6133 32.5195 43.9062 35 44.1797C37.5 44.4727 39.5703 44.7852 39.6094 44.8633C39.6289 44.9414 40.8789 46.9141 42.3438 49.2188L45.0391 53.418H50H54.9609L57.6367 49.2188C59.2383 46.6992 60.4883 44.9414 60.7813 44.8047C61.0156 44.6875 63.1055 44.375 65.3906 44.1406C67.6563 43.8867 69.5313 43.6328 69.5313 43.5547C69.5313 43.4961 68.4766 42.2461 67.1875 40.7812C65.8984 39.3164 64.8438 38.0078 64.8438 37.8711C64.8438 37.7148 65.1758 36.6211 65.5664 35.4492L66.3086 33.3008L66.3672 34.5117L66.4258 35.7227L70.0586 39.4922C72.0703 41.5625 73.8281 43.3008 73.9649 43.3203C74.2969 43.3984 81.0938 42.168 81.2695 42.0117C81.3477 41.9531 81.2305 39.6094 81.0352 36.8164C80.8203 34.0234 80.6836 31.5625 80.7031 31.3477C80.7422 31.1328 81.5039 33.2617 82.4024 36.0742C83.3203 38.9062 84.1211 41.2109 84.1992 41.2109C84.3359 41.2109 89.2578 35.4297 89.707 34.7461C89.8633 34.4922 90.8203 30.4297 91.8164 25.7227C92.832 21.0352 93.6719 17.1875 93.6914 17.1875C93.7305 17.1875 93.75 22.1484 93.75 28.2227ZM39.8047 66.9531C39.8633 67.1484 39.707 67.207 39.2383 67.1484C38.8867 67.1094 38.5742 66.9727 38.5156 66.8359C38.457 66.6406 38.6133 66.582 39.082 66.6406C39.4336 66.6797 39.7461 66.8164 39.8047 66.9531ZM61.6016 66.8945C61.5234 67.0703 61.2305 67.1875 60.8008 67.1875C60.2149 67.1875 60.1367 67.1484 60.3516 66.8945C60.4883 66.7383 60.8399 66.6016 61.1524 66.6016C61.5625 66.6016 61.6797 66.6797 61.6016 66.8945ZM39.5117 69.5312H41.4258L42.5781 71.9727L43.75 74.4141L42.2852 78.5547C41.4844 80.8203 40.8008 82.7148 40.7422 82.7539C40.6641 82.8516 37.8906 79.5312 37.8906 79.3359C37.8906 79.2578 37.5781 76.8359 37.207 73.9258C36.8359 71.0352 36.5234 68.5742 36.5234 68.457C36.5234 68.3594 36.7774 68.5547 37.0703 68.9062L37.5977 69.5312H39.5117ZM62.7539 73.6719C62.4024 76.5039 62.0703 79.0039 62.0117 79.2383C61.9336 79.6094 59.707 82.4414 59.3945 82.5586C59.2578 82.6172 56.4258 74.8242 56.4649 74.4141C56.4649 74.2578 56.9727 73.1055 57.5781 71.875L58.6914 69.6289L60.625 69.5703C62.4024 69.5117 62.5781 69.4727 62.9297 69.043C63.1445 68.7695 63.3203 68.5547 63.3594 68.5547C63.3789 68.5547 63.1055 70.8594 62.7539 73.6719ZM54.4922 91.3281C54.4922 91.3867 54.2578 91.8164 53.9844 92.3047L53.4766 93.1641H50.0781H46.6797L46.2305 92.4219C45.9766 92.0312 45.7031 91.582 45.625 91.4453C45.5078 91.2695 46.4453 91.2109 49.9805 91.2109C52.4609 91.2109 54.4922 91.2695 54.4922 91.3281Z"/>
</mask>
<path d="M4.53126 5.64453C4.1797 5.70312 3.88673 5.82031 3.90626 5.89844C3.90626 5.99609 3.90626 13.8477 3.90626 23.3789L3.92579 40.7227L8.53516 43.75L13.1641 46.7773L22.6367 48.457L32.1094 50.1172L32.793 51.0742C33.4961 52.0508 33.4766 52.0508 32.1289 51.1328C31.4453 50.6836 30.293 50.4102 23.5742 49.1211C19.2774 48.3008 15.7422 47.6758 15.7031 47.7148C15.6445 47.7734 15.9766 49.7852 16.4258 52.2266L17.2656 56.6211L22.5781 61.1719L27.8906 65.7227L30.7031 65.5078C32.2266 65.3906 33.5547 65.3516 33.6328 65.4102C33.7109 65.4688 34.1797 68.7305 34.668 72.6562C35.1563 76.582 35.6055 79.9609 35.6445 80.1758C35.6836 80.3906 36.6602 81.6797 37.7734 83.0273L39.8438 85.5078L39.5703 86.25L39.3164 87.0117L40.7813 88.9648C41.582 90.0391 42.3828 91.0352 42.5586 91.1719C42.7344 91.3086 43.3984 92.3242 44.043 93.418L45.2344 95.4102L50.0195 95.4688L54.7852 95.5078L55.8594 93.7109C56.4453 92.7148 57.207 91.582 57.5391 91.2109C57.8711 90.8398 58.7305 89.7461 59.4727 88.8086C60.7813 87.0898 60.8008 87.0703 60.5664 86.3477C60.4492 85.9375 60.3516 85.5078 60.3516 85.3906C60.3516 85.293 61.2305 84.1406 62.3047 82.8516L64.2578 80.4883L65.1758 73.1445C65.6836 69.082 66.1914 65.6641 66.3086 65.5273C66.4649 65.332 67.0899 65.3125 69.2774 65.4688L72.0508 65.6641L76.8945 61.5039C79.5508 59.2383 81.9336 57.168 82.1875 56.9336C82.5781 56.5625 82.7734 55.8203 83.4961 52.0312C83.9844 49.5898 84.3359 47.5586 84.3164 47.5391C84.2969 47.5391 80.7422 48.1836 76.4063 49.0234C69.043 50.4297 68.4961 50.5664 67.6953 51.1328C67.2266 51.4844 66.7774 51.7578 66.6992 51.7578C66.6406 51.7578 66.8555 51.3672 67.1875 50.8789C67.5195 50.3906 67.8516 50 67.9297 50C68.0078 50 72.2461 49.2578 77.3828 48.3594L86.6797 46.7383L91.3867 43.6523L96.0938 40.5664V23.1445V5.72266L95 5.58594C94.3945 5.50781 93.8672 5.48828 93.8281 5.52734C93.7891 5.56641 92.4024 11.8945 90.7422 19.5898L87.7344 33.5742L86.5039 35C85.8399 35.7812 85.2149 36.4453 85.1367 36.4844C85.0586 36.5234 84.8828 36.2109 84.7656 35.8008C84.375 34.3555 79.9414 20.8789 79.8242 20.7812C79.7656 20.7227 79.2188 20.7617 78.6328 20.8984L77.5391 21.1133L77.6367 22.1289C77.832 23.8867 78.9258 40.0977 78.8672 40.1367C78.7305 40.2539 74.6094 40.8984 74.5703 40.8008C74.5313 40.7617 73.2031 39.3945 71.6211 37.7539L68.7305 34.8047L68.8477 31.8164C68.9063 30.1562 69.0039 27.8711 69.0625 26.6992L69.1602 24.6094H68.0274H66.8945L64.5117 31.4258C63.1836 35.1562 62.1094 38.3008 62.1094 38.3984C62.1094 38.4961 62.7344 39.2773 63.4766 40.1367C64.375 41.1719 64.7461 41.7383 64.5899 41.8164C64.4727 41.8945 63.1836 42.0508 61.7578 42.1875L59.1797 42.4414L56.4063 46.8164L53.6328 51.1719H50H46.3672L43.5938 46.8164L40.8203 42.4414L38.2422 42.1875C36.8164 42.0508 35.5274 41.875 35.3906 41.8164C35.2149 41.7188 35.5664 41.2109 36.5234 40.1172C37.2656 39.2773 37.8906 38.4961 37.8906 38.3984C37.8906 38.3008 36.8164 35.1562 35.5078 31.4062L33.1055 24.6094H31.9531H30.8008L30.9375 26.2109C30.9961 27.1094 31.0547 29.3945 31.0742 31.3086L31.0938 34.7852L29.5313 36.4844C28.6719 37.4219 27.3438 38.7891 26.582 39.5312L25.2149 40.8789L23.1641 40.5273L21.0938 40.1758V39.4727C21.0938 39.082 21.3477 35.0781 21.6797 30.5664C21.9922 26.0547 22.2656 22.0898 22.2656 21.7578C22.2656 21.0742 22.1484 20.9961 20.8789 20.8008L20.0195 20.6836L17.5 28.6133C16.1133 32.9688 14.9219 36.5039 14.8438 36.4844C14.7656 36.4453 14.1602 35.7812 13.4961 35L12.2656 33.5742L9.19923 19.5117L6.15235 5.46875L5.66407 5.48828C5.39063 5.50781 4.88282 5.56641 4.53126 5.64453ZM93.75 28.2227V39.2578L89.8047 41.8945L85.8399 44.5117L76.1719 46.1914C70.8594 47.1289 66.4063 47.9883 66.2695 48.1055C66.1524 48.2422 64.9805 49.9219 63.6719 51.8359L61.2891 55.3516L61.7383 55.6836C62.168 56.0156 62.1875 56.0352 61.8555 56.4062C61.4063 56.8945 61.4258 56.9727 62.0703 57.3047C62.6172 57.5977 62.6563 57.5586 66.0547 55.1562L69.4922 52.7344L73.1445 52.0312C75.1563 51.6602 76.8359 51.3867 76.875 51.4258C76.9141 51.4648 74.5313 52.9688 71.582 54.7852C68.6328 56.582 66.2109 58.1055 66.2109 58.1445C66.2109 58.3984 67.2461 59.9609 67.4219 59.9609C67.5781 59.9609 78.2617 53.4961 80.6445 51.9727L81.1133 51.6797L80.9766 52.6367C80.625 55.2734 80.8203 55.0391 75.7813 59.3555L71.1914 63.3008L70.2149 63.2031C69.6875 63.1445 68.2813 63.0469 67.0899 62.9688L64.9414 62.8516L64.5703 63.5547L64.1992 64.2578H61.7969H59.375L58.3984 65.5664C57.4805 66.8164 53.9063 73.7695 53.9063 74.3164C53.9063 74.4727 54.8828 77.2852 56.0547 80.5859L58.2227 86.582L57.3438 87.6758L56.4844 88.7695L50.0586 88.8281L43.6328 88.8672L42.9102 87.8906C42.5 87.3438 42.1289 86.7969 42.0703 86.6602C42.0313 86.5234 42.9492 83.6914 44.1211 80.3711L46.2695 74.3164L44.6094 70.8008C43.6914 68.8672 42.4609 66.6016 41.875 65.7617L40.8008 64.2578H38.2617H35.7227L35.4297 63.5547L35.1367 62.832L33.3399 62.9688C32.3438 63.0469 30.8789 63.1445 30.0781 63.2031L28.6133 63.3203L24.0234 59.3359L19.4531 55.3711L19.1016 53.6133C18.9063 52.6367 18.7695 51.7383 18.7891 51.6211C18.8281 51.4844 21.8945 53.2422 25.9766 55.7422L33.1055 60.1172L33.6524 59.2383C33.9649 58.75 34.1602 58.2617 34.1211 58.125C34.0625 58.0078 31.7383 56.5039 28.9258 54.8047C26.1133 53.0859 23.8477 51.6602 23.8867 51.6406C23.9258 51.6016 25.3906 51.8555 27.168 52.1875L30.3711 52.793L33.9453 55.3125L37.5195 57.832L38.0664 57.3828C38.3789 57.1289 38.7891 56.8359 38.9844 56.7188C39.3164 56.5234 39.1602 56.2109 36.9336 52.9102C35.5859 50.9375 34.2774 49.0234 33.9844 48.6523L33.457 47.9688L23.7695 46.2695L14.0625 44.5703L10.1563 41.9922L6.25001 39.3945L6.26954 28.3398C6.26954 22.2656 6.3086 17.3633 6.34766 17.4805C6.38673 17.5781 7.22657 21.4062 8.22266 25.9766C9.19923 30.5469 10.1367 34.4922 10.293 34.7461C10.7422 35.4492 15.6641 41.2109 15.8008 41.2109C15.8789 41.2109 16.6406 39.043 17.4805 36.3672C19.1602 31.0352 19.3945 30.4883 19.2383 31.9336C18.9258 34.8828 18.5547 41.875 18.6914 41.9922C18.9063 42.1875 25.6641 43.418 26.0352 43.3203C26.1719 43.3008 27.9492 41.543 29.9414 39.4531L33.5938 35.6445L33.4766 34.2773C33.418 33.3594 33.4375 33.0078 33.5547 33.2031C33.8281 33.6133 35.1563 37.4805 35.1563 37.832C35.1563 37.9883 34.1016 39.3164 32.8125 40.7812C31.5234 42.2461 30.4688 43.4961 30.4688 43.5547C30.4688 43.6133 32.5195 43.9062 35 44.1797C37.5 44.4727 39.5703 44.7852 39.6094 44.8633C39.6289 44.9414 40.8789 46.9141 42.3438 49.2188L45.0391 53.418H50H54.9609L57.6367 49.2188C59.2383 46.6992 60.4883 44.9414 60.7813 44.8047C61.0156 44.6875 63.1055 44.375 65.3906 44.1406C67.6563 43.8867 69.5313 43.6328 69.5313 43.5547C69.5313 43.4961 68.4766 42.2461 67.1875 40.7812C65.8984 39.3164 64.8438 38.0078 64.8438 37.8711C64.8438 37.7148 65.1758 36.6211 65.5664 35.4492L66.3086 33.3008L66.3672 34.5117L66.4258 35.7227L70.0586 39.4922C72.0703 41.5625 73.8281 43.3008 73.9649 43.3203C74.2969 43.3984 81.0938 42.168 81.2695 42.0117C81.3477 41.9531 81.2305 39.6094 81.0352 36.8164C80.8203 34.0234 80.6836 31.5625 80.7031 31.3477C80.7422 31.1328 81.5039 33.2617 82.4024 36.0742C83.3203 38.9062 84.1211 41.2109 84.1992 41.2109C84.3359 41.2109 89.2578 35.4297 89.707 34.7461C89.8633 34.4922 90.8203 30.4297 91.8164 25.7227C92.832 21.0352 93.6719 17.1875 93.6914 17.1875C93.7305 17.1875 93.75 22.1484 93.75 28.2227ZM39.8047 66.9531C39.8633 67.1484 39.707 67.207 39.2383 67.1484C38.8867 67.1094 38.5742 66.9727 38.5156 66.8359C38.457 66.6406 38.6133 66.582 39.082 66.6406C39.4336 66.6797 39.7461 66.8164 39.8047 66.9531ZM61.6016 66.8945C61.5234 67.0703 61.2305 67.1875 60.8008 67.1875C60.2149 67.1875 60.1367 67.1484 60.3516 66.8945C60.4883 66.7383 60.8399 66.6016 61.1524 66.6016C61.5625 66.6016 61.6797 66.6797 61.6016 66.8945ZM39.5117 69.5312H41.4258L42.5781 71.9727L43.75 74.4141L42.2852 78.5547C41.4844 80.8203 40.8008 82.7148 40.7422 82.7539C40.6641 82.8516 37.8906 79.5312 37.8906 79.3359C37.8906 79.2578 37.5781 76.8359 37.207 73.9258C36.8359 71.0352 36.5234 68.5742 36.5234 68.457C36.5234 68.3594 36.7774 68.5547 37.0703 68.9062L37.5977 69.5312H39.5117ZM62.7539 73.6719C62.4024 76.5039 62.0703 79.0039 62.0117 79.2383C61.9336 79.6094 59.707 82.4414 59.3945 82.5586C59.2578 82.6172 56.4258 74.8242 56.4649 74.4141C56.4649 74.2578 56.9727 73.1055 57.5781 71.875L58.6914 69.6289L60.625 69.5703C62.4024 69.5117 62.5781 69.4727 62.9297 69.043C63.1445 68.7695 63.3203 68.5547 63.3594 68.5547C63.3789 68.5547 63.1055 70.8594 62.7539 73.6719ZM54.4922 91.3281C54.4922 91.3867 54.2578 91.8164 53.9844 92.3047L53.4766 93.1641H50.0781H46.6797L46.2305 92.4219C45.9766 92.0312 45.7031 91.582 45.625 91.4453C45.5078 91.2695 46.4453 91.2109 49.9805 91.2109C52.4609 91.2109 54.4922 91.2695 54.4922 91.3281Z" fill="#3E3737" stroke="#3E3737" stroke-width="2" mask="url(#path-2-inside-1)"/>
<path d="M47.6973 86.2998L47.6973 86.2998L47.6992 86.2962L47.9808 85.7442L47.937 85.7163C47.5912 85.5016 46.7442 85.0369 45.9569 84.6188C45.5655 84.411 45.195 84.2179 44.9175 84.0773C44.8788 84.0577 44.8421 84.0393 44.8076 84.022C44.7105 84.1826 44.5919 84.3924 44.4675 84.6244C44.3561 84.8474 44.2602 85.0529 44.1901 85.2162C44.2809 85.2661 44.387 85.3237 44.5048 85.3872C44.8711 85.5846 45.3453 85.8357 45.8177 86.0829C46.2903 86.3301 46.7593 86.5725 47.1154 86.7526C47.2124 86.8017 47.3003 86.8458 47.3772 86.884C47.4706 86.7317 47.5828 86.529 47.6973 86.2998Z" fill="#3E3737" stroke="#3E3737"/>
<path d="M53.7592 84.8507L53.7592 84.8508L53.7527 84.8543C53.2464 85.1269 52.7743 85.3849 52.4217 85.5794C52.325 85.6327 52.2374 85.6812 52.1608 85.7239C52.2241 85.8632 52.3062 86.0297 52.396 86.201C52.5117 86.4219 52.635 86.6407 52.7397 86.809C52.7495 86.8249 52.7591 86.8401 52.7684 86.8546C52.848 86.8212 52.9431 86.7786 53.0519 86.7274C53.4105 86.5587 53.8776 86.3158 54.3434 86.0588C54.8091 85.8018 55.2644 85.5357 55.5999 85.322C55.6984 85.2592 55.7835 85.203 55.8538 85.1542C55.8515 85.1494 55.8491 85.1445 55.8467 85.1396C55.7621 84.9637 55.6461 84.7403 55.5255 84.5194C55.4306 84.3455 55.3352 84.1776 55.2526 84.0393C55.1972 84.0684 55.1366 84.1005 55.0712 84.1353C54.7297 84.3169 54.2639 84.5693 53.7592 84.8507ZM55.9572 85.3907C55.957 85.3901 55.9567 85.3893 55.9564 85.3882C55.9584 85.3959 55.9592 85.3973 55.9572 85.3907Z" fill="#3E3737" stroke="#3E3737"/>
<defs>
<linearGradient id="paint0_linear" x1="50" y1="0" x2="50" y2="100" gradientUnits="userSpaceOnUse">
<stop stop-color="#0ADE74"/>
<stop offset="1" stop-color="white" stop-opacity="0"/>
</linearGradient>
</defs>
</svg>
