<svg width="272" height="50" viewBox="0 0 272 50" fill="none" xmlns="http://www.w3.org/2000/svg">
<path d="M0.112 2.92H17.712C20.6987 2.92 23.088 3.176 24.88 3.688C26.7147 4.15733 28.1227 4.904 29.104 5.928C30.128 6.90933 30.8107 8.14666 31.152 9.64C31.4933 11.0907 31.664 12.776 31.664 14.696C31.664 16.0613 31.5147 17.2987 31.216 18.408C30.9173 19.5173 30.4267 20.4773 29.744 21.288C29.104 22.056 28.2293 22.6747 27.12 23.144C26.0533 23.6133 24.7307 23.848 23.152 23.848V24.104C24.8587 24.104 26.352 24.3813 27.632 24.936C28.9547 25.4907 30.0427 26.28 30.896 27.304C31.792 28.2853 32.4533 29.4587 32.88 30.824C33.3493 32.1893 33.584 33.6827 33.584 35.304C33.584 37.3093 33.392 39.144 33.008 40.808C32.624 42.472 31.8773 43.9227 30.768 45.16C29.7013 46.3547 28.1653 47.2933 26.16 47.976C24.1973 48.6587 21.5947 49 18.352 49H0.112V45.16L6.064 43.88V8.04L0.112 6.76V2.92ZM18.608 44.2C20.3147 44.2 21.7013 43.9867 22.768 43.56C23.8773 43.1333 24.7307 42.536 25.328 41.768C25.968 41 26.3947 40.0827 26.608 39.016C26.8213 37.9067 26.928 36.6693 26.928 35.304C26.928 33.8533 26.8 32.5947 26.544 31.528C26.3307 30.4187 25.9253 29.5013 25.328 28.776C24.7307 28.0507 23.92 27.496 22.896 27.112C21.9147 26.728 20.6347 26.536 19.056 26.536H12.4V44.2H18.608ZM25.008 14.696C25.008 13.6293 24.9013 12.6693 24.688 11.816C24.5173 10.92 24.176 10.1733 23.664 9.576C23.152 8.97866 22.4267 8.53066 21.488 8.232C20.592 7.89066 19.4187 7.72 17.968 7.72H12.4V21.736H18.352C19.6747 21.736 20.7627 21.5867 21.616 21.288C22.512 20.9467 23.1947 20.4773 23.664 19.88C24.176 19.2827 24.5173 18.5573 24.688 17.704C24.9013 16.808 25.008 15.8053 25.008 14.696ZM50.5935 49.64C48.8868 49.64 47.4148 49.4053 46.1775 48.936C44.9402 48.424 43.9162 47.7413 43.1055 46.888C42.2948 46.0347 41.6975 45.0533 41.3135 43.944C40.9295 42.792 40.7375 41.576 40.7375 40.296V22.12L36.8975 20.84V17H46.8815V36.072C46.8815 37.4373 46.9455 38.696 47.0735 39.848C47.2015 40.9573 47.4575 41.9173 47.8415 42.728C48.2682 43.496 48.8442 44.0933 49.5695 44.52C50.2948 44.9467 51.2335 45.16 52.3855 45.16C53.6228 45.16 54.6682 44.9253 55.5215 44.456C56.4175 43.9867 57.1428 43.368 57.6975 42.6C58.2522 41.7893 58.6575 40.8933 58.9135 39.912C59.1695 38.9307 59.2975 37.928 59.2975 36.904V22.12L53.5375 20.84V17H65.3775V43.88L70.2415 45.16V49H60.5775L59.2975 43.688C58.8708 45.6933 57.8895 47.1867 56.3535 48.168C54.8175 49.1493 52.8975 49.64 50.5935 49.64ZM86.5505 49.64C84.0332 49.64 81.9425 49.2347 80.2785 48.424C78.6145 47.6133 77.2918 46.4827 76.3105 45.032C75.3292 43.5387 74.6465 41.7893 74.2625 39.784C73.8785 37.736 73.6865 35.4747 73.6865 33C73.6865 30.5253 73.8998 28.2853 74.3265 26.28C74.7958 24.232 75.4998 22.4827 76.4385 21.032C77.4198 19.5387 78.6572 18.3867 80.1505 17.576C81.6438 16.7653 83.4572 16.36 85.5905 16.36C87.4678 16.36 89.0465 16.7227 90.3265 17.448C91.6492 18.1307 92.4812 19.3253 92.8225 21.032H93.0785L94.3585 17H97.8785V27.432H92.4385C92.4385 26.664 92.3532 25.896 92.1825 25.128C92.0118 24.3173 91.6918 23.592 91.2225 22.952C90.7958 22.312 90.1985 21.8 89.4305 21.416C88.7052 21.032 87.7878 20.84 86.6785 20.84C85.1852 20.84 84.0332 21.1813 83.2225 21.864C82.4118 22.504 81.7932 23.4 81.3665 24.552C80.9398 25.6613 80.6838 26.9627 80.5985 28.456C80.5132 29.9067 80.4705 31.4213 80.4705 33C80.4705 34.6213 80.5132 36.2 80.5985 37.736C80.6838 39.2293 80.9398 40.5947 81.3665 41.832C81.7932 43.0267 82.4118 43.9867 83.2225 44.712C84.0332 45.4373 85.1852 45.8 86.6785 45.8C87.7025 45.8 88.5772 45.5653 89.3025 45.096C90.0278 44.6267 90.6038 44.008 91.0305 43.24C91.4572 42.4293 91.7558 41.512 91.9265 40.488C92.1398 39.464 92.2465 38.4187 92.2465 37.352H97.8145C97.8145 39.0587 97.6225 40.6587 97.2385 42.152C96.8972 43.6453 96.2785 44.9467 95.3825 46.056C94.5292 47.1653 93.3772 48.04 91.9265 48.68C90.5185 49.32 88.7265 49.64 86.5505 49.64ZM101.457 45.16L106.257 43.88V5.8L101.393 4.52V0.679996H112.337V30.248L122.769 17H131.217V20.84L125.521 21.8L118.865 29.48L128.529 43.88L133.457 45.16V49H125.009L114.897 34.024L112.337 37.032V43.88L116.497 45.16V49H101.457V45.16ZM153.322 49.704C151.658 49.704 150.271 49.5333 149.162 49.192C148.095 48.8507 147.221 48.4027 146.538 47.848C145.855 47.2933 145.322 46.6533 144.938 45.928C144.554 45.2027 144.234 44.4773 143.978 43.752H143.594L142.314 49H137.194V34.792H143.594C143.594 36.5413 143.807 38.0347 144.234 39.272C144.703 40.4667 145.322 41.448 146.09 42.216C146.858 42.984 147.775 43.56 148.842 43.944C149.951 44.2853 151.146 44.456 152.426 44.456C153.834 44.456 155.029 44.2853 156.01 43.944C156.991 43.56 157.802 43.048 158.442 42.408C159.082 41.768 159.53 41.0213 159.786 40.168C160.085 39.3147 160.234 38.4187 160.234 37.48C160.234 35.432 159.679 33.832 158.57 32.68C157.461 31.4853 156.074 30.4827 154.41 29.672C152.789 28.8613 150.997 28.136 149.034 27.496C147.114 26.8133 145.322 25.96 143.658 24.936C142.037 23.8693 140.671 22.504 139.562 20.84C138.453 19.176 137.898 16.9573 137.898 14.184C137.898 12.1787 138.218 10.4293 138.858 8.936C139.498 7.44267 140.351 6.20533 141.418 5.224C142.527 4.2 143.829 3.45333 145.322 2.984C146.815 2.472 148.394 2.216 150.058 2.216C151.167 2.216 152.213 2.344 153.194 2.6C154.218 2.81333 155.135 3.176 155.946 3.688C156.799 4.2 157.503 4.88266 158.058 5.736C158.613 6.58933 158.997 7.63467 159.21 8.872H159.53L160.81 2.92H165.866V18.6H159.53C159.53 17.32 159.381 16.0187 159.082 14.696C158.783 13.3733 158.293 12.1787 157.61 11.112C156.927 10.0453 156.053 9.17066 154.986 8.488C153.962 7.80533 152.703 7.464 151.21 7.464C150.271 7.464 149.375 7.61333 148.522 7.912C147.711 8.21066 146.986 8.63733 146.346 9.192C145.706 9.74666 145.194 10.4293 144.81 11.24C144.469 12.008 144.298 12.904 144.298 13.928C144.298 15.7627 144.853 17.2133 145.962 18.28C147.071 19.304 148.437 20.2 150.058 20.968C151.722 21.736 153.514 22.4827 155.434 23.208C157.397 23.8907 159.189 24.7867 160.81 25.896C162.474 26.9627 163.861 28.3707 164.97 30.12C166.079 31.8693 166.634 34.1733 166.634 37.032C166.634 41 165.461 44.1147 163.114 46.376C160.81 48.5947 157.546 49.704 153.322 49.704ZM170.393 18.28L175.193 17L176.473 8.616H181.273V17H187.289V21.672H181.273V39.08C181.273 41.0427 181.508 42.472 181.977 43.368C182.446 44.264 183.214 44.712 184.281 44.712C184.75 44.712 185.348 44.648 186.073 44.52C186.798 44.392 187.481 44.2213 188.121 44.008L189.465 47.592C188.825 48.1893 187.886 48.68 186.649 49.064C185.454 49.448 184.196 49.64 182.873 49.64C180.185 49.64 178.222 48.808 176.985 47.144C175.79 45.4373 175.193 42.7493 175.193 39.08V21.672H170.393V18.28ZM205.812 49.64C203.295 49.64 201.183 49.2347 199.477 48.424C197.77 47.6133 196.405 46.4827 195.381 45.032C194.357 43.5387 193.61 41.7893 193.141 39.784C192.714 37.736 192.501 35.4747 192.501 33C192.501 30.5253 192.714 28.2853 193.141 26.28C193.61 24.232 194.357 22.4827 195.381 21.032C196.405 19.5387 197.77 18.3867 199.477 17.576C201.183 16.7653 203.295 16.36 205.812 16.36C208.33 16.36 210.442 16.7653 212.149 17.576C213.855 18.3867 215.221 19.5387 216.245 21.032C217.269 22.4827 217.994 24.232 218.421 26.28C218.89 28.2853 219.125 30.5253 219.125 33C219.125 35.4747 218.89 37.736 218.421 39.784C217.994 41.7893 217.269 43.5387 216.245 45.032C215.221 46.4827 213.855 47.6133 212.149 48.424C210.442 49.2347 208.33 49.64 205.812 49.64ZM205.812 45.8C207.263 45.8 208.415 45.4373 209.269 44.712C210.165 43.9867 210.826 43.0267 211.253 41.832C211.722 40.5947 212.021 39.2293 212.149 37.736C212.277 36.2 212.341 34.6213 212.341 33C212.341 31.4213 212.277 29.864 212.149 28.328C212.021 26.792 211.722 25.4267 211.253 24.232C210.826 22.9947 210.165 22.0133 209.269 21.288C208.415 20.5627 207.263 20.2 205.812 20.2C204.319 20.2 203.146 20.5627 202.293 21.288C201.439 22.0133 200.778 22.9947 200.309 24.232C199.882 25.4267 199.605 26.792 199.477 28.328C199.349 29.864 199.285 31.4213 199.285 33C199.285 34.6213 199.349 36.2 199.477 37.736C199.605 39.2293 199.882 40.5947 200.309 41.832C200.778 43.0267 201.439 43.9867 202.293 44.712C203.146 45.4373 204.319 45.8 205.812 45.8ZM243.896 22.184C242.104 22.184 240.61 22.2907 239.416 22.504C238.221 22.7173 237.261 23.144 236.536 23.784C235.81 24.424 235.277 25.2987 234.936 26.408C234.637 27.5173 234.488 28.968 234.488 30.76V44.008L241.144 44.84V49H223.608V45.288L228.408 44.008V22.12L223.544 20.84V17H232.888L234.168 22.12C234.893 20.1573 236.152 18.7067 237.944 17.768C239.736 16.8293 241.72 16.36 243.896 16.36V22.184ZM259.999 49.64C257.439 49.64 255.305 49.256 253.599 48.488C251.892 47.72 250.527 46.6107 249.503 45.16C248.479 43.7093 247.753 41.96 247.327 39.912C246.9 37.864 246.687 35.56 246.687 33C246.687 30.44 246.9 28.136 247.327 26.088C247.753 23.9973 248.479 22.248 249.503 20.84C250.569 19.3893 251.956 18.28 253.663 17.512C255.412 16.744 257.567 16.36 260.127 16.36C262.303 16.36 264.116 16.6587 265.567 17.256C267.017 17.8533 268.191 18.7707 269.087 20.008C269.983 21.2027 270.623 22.7387 271.007 24.616C271.391 26.4507 271.583 28.6267 271.583 31.144C271.583 31.656 271.583 32.1893 271.583 32.744C271.583 33.256 271.561 33.8107 271.519 34.408H253.47C253.47 35.9867 253.535 37.48 253.663 38.888C253.791 40.2533 254.068 41.448 254.495 42.472C254.964 43.496 255.625 44.3067 256.479 44.904C257.332 45.5013 258.505 45.8 259.999 45.8C261.236 45.8 262.217 45.608 262.943 45.224C263.711 44.7973 264.287 44.2853 264.671 43.688C265.055 43.048 265.311 42.3653 265.439 41.64C265.567 40.9147 265.652 40.2107 265.695 39.528H271.519C271.391 40.7653 271.113 42.0027 270.687 43.24C270.303 44.4347 269.663 45.5227 268.767 46.504C267.913 47.4427 266.783 48.2107 265.375 48.808C263.967 49.3627 262.175 49.64 259.999 49.64ZM259.743 20.2C258.42 20.2 257.353 20.4773 256.543 21.032C255.732 21.5867 255.092 22.3333 254.623 23.272C254.196 24.2107 253.897 25.32 253.727 26.6C253.599 27.8373 253.513 29.16 253.47 30.568H265.631C265.631 26.728 265.161 24.04 264.223 22.504C263.327 20.968 261.833 20.2 259.743 20.2Z" fill="#048243"/>
</svg>
