<svg width="75" height="75" viewBox="0 0 75 75" fill="none" xmlns="http://www.w3.org/2000/svg">
<rect width="75" height="75" rx="16" fill="#048243"/>
<rect width="75" height="75" rx="16" fill="url(#paint0_linear)"/>
<mask id="path-2-inside-1" fill="white">
<path d="M3.39846 4.2334C3.13479 4.27734 2.91506 4.36523 2.92971 4.42383C2.92971 4.49707 2.92971 10.3857 2.92971 17.5342L2.94436 30.542L6.40139 32.8125L9.87307 35.083L16.9776 36.3428L24.0821 37.5879L24.5947 38.3057C25.1221 39.0381 25.1074 39.0381 24.0967 38.3496C23.584 38.0127 22.7197 37.8076 17.6807 36.8408C14.458 36.2256 11.8067 35.7568 11.7774 35.7861C11.7334 35.8301 11.9824 37.3389 12.3194 39.1699L12.9492 42.4658L16.9336 45.8789L20.918 49.292L23.0274 49.1309C24.1699 49.043 25.166 49.0137 25.2246 49.0576C25.2832 49.1016 25.6348 51.5479 26.001 54.4922C26.3672 57.4365 26.7041 59.9707 26.7334 60.1318C26.7627 60.293 27.4951 61.2598 28.3301 62.2705L29.8828 64.1309L29.6778 64.6875L29.4873 65.2588L30.586 66.7236C31.1865 67.5293 31.7871 68.2764 31.919 68.3789C32.0508 68.4814 32.5489 69.2432 33.0322 70.0635L33.9258 71.5576L37.5147 71.6016L41.0889 71.6309L41.8946 70.2832C42.334 69.5361 42.9053 68.6865 43.1543 68.4082C43.4033 68.1299 44.0479 67.3096 44.6045 66.6064C45.586 65.3174 45.6006 65.3027 45.4248 64.7607C45.3369 64.4531 45.2637 64.1309 45.2637 64.043C45.2637 63.9697 45.9229 63.1055 46.7285 62.1387L48.1934 60.3662L48.8819 54.8584C49.2627 51.8115 49.6436 49.248 49.7315 49.1455C49.8487 48.999 50.3174 48.9844 51.958 49.1016L54.0381 49.248L57.6709 46.1279C59.6631 44.4287 61.4502 42.876 61.6406 42.7002C61.9336 42.4219 62.0801 41.8652 62.6221 39.0234C62.9883 37.1924 63.252 35.6689 63.2373 35.6543C63.2227 35.6543 60.5567 36.1377 57.3047 36.7676C51.7822 37.8223 51.3721 37.9248 50.7715 38.3496C50.4199 38.6133 50.083 38.8184 50.0244 38.8184C49.9805 38.8184 50.1416 38.5254 50.3906 38.1592C50.6397 37.793 50.8887 37.5 50.9473 37.5C51.0059 37.5 54.1846 36.9434 58.0371 36.2695L65.0098 35.0537L68.5401 32.7393L72.0703 30.4248V17.3584V4.29199L71.25 4.18945C70.7959 4.13086 70.4004 4.11621 70.3711 4.14551C70.3418 4.1748 69.3018 8.9209 68.0567 14.6924L65.8008 25.1807L64.878 26.25C64.3799 26.8359 63.9112 27.334 63.8526 27.3633C63.794 27.3926 63.6621 27.1582 63.5742 26.8506C63.2813 25.7666 59.9561 15.6592 59.8682 15.5859C59.8242 15.542 59.4141 15.5713 58.9746 15.6738L58.1543 15.835L58.2276 16.5967C58.374 17.915 59.1944 30.0732 59.1504 30.1025C59.0479 30.1904 55.9571 30.6738 55.9278 30.6006C55.8985 30.5713 54.9024 29.5459 53.7158 28.3154L51.5479 26.1035L51.6358 23.8623C51.6797 22.6172 51.753 20.9033 51.7969 20.0244L51.8701 18.457H51.0205H50.1709L48.3838 23.5693C47.3877 26.3672 46.5821 28.7256 46.5821 28.7988C46.5821 28.8721 47.0508 29.458 47.6074 30.1025C48.2813 30.8789 48.5596 31.3037 48.4424 31.3623C48.3545 31.4209 47.3877 31.5381 46.3184 31.6406L44.3848 31.8311L42.3047 35.1123L40.2246 38.3789H37.5H34.7754L32.6953 35.1123L30.6153 31.8311L28.6817 31.6406C27.6123 31.5381 26.6455 31.4062 26.543 31.3623C26.4112 31.2891 26.6748 30.9082 27.3926 30.0879C27.9492 29.458 28.418 28.8721 28.418 28.7988C28.418 28.7256 27.6123 26.3672 26.6309 23.5547L24.8291 18.457H23.9649H23.1006L23.2031 19.6582C23.2471 20.332 23.291 22.0459 23.3057 23.4814L23.3203 26.0889L22.1485 27.3633C21.5039 28.0664 20.5078 29.0918 19.9365 29.6484L18.9112 30.6592L17.3731 30.3955L15.8203 30.1318V29.6045C15.8203 29.3115 16.0108 26.3086 16.2598 22.9248C16.4942 19.541 16.6992 16.5674 16.6992 16.3184C16.6992 15.8057 16.6113 15.7471 15.6592 15.6006L15.0147 15.5127L13.125 21.46C12.085 24.7266 11.1914 27.3779 11.1328 27.3633C11.0742 27.334 10.6201 26.8359 10.1221 26.25L9.19924 25.1807L6.89944 14.6338L4.61428 4.10156L4.24807 4.11621C4.04299 4.13086 3.66213 4.1748 3.39846 4.2334ZM70.3125 21.167V29.4434L67.3535 31.4209L64.3799 33.3838L57.1289 34.6436C53.1446 35.3467 49.8047 35.9912 49.7022 36.0791C49.6143 36.1816 48.7354 37.4414 47.7539 38.877L45.9668 41.5137L46.3037 41.7627C46.626 42.0117 46.6406 42.0264 46.3916 42.3047C46.0547 42.6709 46.0694 42.7295 46.5528 42.9785C46.9629 43.1982 46.9922 43.1689 49.541 41.3672L52.1192 39.5508L54.8584 39.0234C56.3672 38.7451 57.627 38.54 57.6563 38.5693C57.6856 38.5986 55.8985 39.7266 53.6865 41.0889C51.4746 42.4365 49.6582 43.5791 49.6582 43.6084C49.6582 43.7988 50.4346 44.9707 50.5664 44.9707C50.6836 44.9707 58.6963 40.1221 60.4834 38.9795L60.835 38.7598L60.7324 39.4775C60.4688 41.4551 60.6153 41.2793 56.836 44.5166L53.3936 47.4756L52.6612 47.4023C52.2656 47.3584 51.211 47.2852 50.3174 47.2266L48.7061 47.1387L48.4278 47.666L48.1494 48.1934H46.3477H44.5313L43.7989 49.1748C43.1104 50.1123 40.4297 55.3271 40.4297 55.7373C40.4297 55.8545 41.1621 57.9639 42.041 60.4395L43.667 64.9365L43.0078 65.7568L42.3633 66.5771L37.544 66.6211L32.7246 66.6504L32.1826 65.918C31.875 65.5078 31.5967 65.0977 31.5528 64.9951C31.5235 64.8926 32.2119 62.7686 33.0908 60.2783L34.7022 55.7373L33.4571 53.1006C32.7686 51.6504 31.8457 49.9512 31.4063 49.3213L30.6006 48.1934H28.6963H26.792L26.5723 47.666L26.3526 47.124L25.0049 47.2266C24.2578 47.2852 23.1592 47.3584 22.5586 47.4023L21.46 47.4902L18.0176 44.502L14.5899 41.5283L14.3262 40.21C14.1797 39.4775 14.0772 38.8037 14.0918 38.7158C14.1211 38.6133 16.4209 39.9316 19.4824 41.8066L24.8291 45.0879L25.2393 44.4287C25.4737 44.0625 25.6201 43.6963 25.5908 43.5938C25.5469 43.5059 23.8037 42.3779 21.6944 41.1035C19.585 39.8145 17.8858 38.7451 17.9151 38.7305C17.9444 38.7012 19.043 38.8916 20.376 39.1406L22.7783 39.5947L25.459 41.4844L28.1397 43.374L28.5498 43.0371C28.7842 42.8467 29.0918 42.627 29.2383 42.5391C29.4873 42.3926 29.3701 42.1582 27.7002 39.6826C26.6895 38.2031 25.708 36.7676 25.4883 36.4893L25.0928 35.9766L17.8272 34.7021L10.5469 33.4277L7.61721 31.4941L4.68752 29.5459L4.70217 21.2549C4.70217 16.6992 4.73147 13.0225 4.76076 13.1104C4.79006 13.1836 5.41994 16.0547 6.16701 19.4824C6.89944 22.9102 7.60256 25.8691 7.71975 26.0596C8.05666 26.5869 11.7481 30.9082 11.8506 30.9082C11.9092 30.9082 12.4805 29.2822 13.1104 27.2754C14.3701 23.2764 14.5459 22.8662 14.4287 23.9502C14.1944 26.1621 13.916 31.4062 14.0186 31.4941C14.1797 31.6406 19.2481 32.5635 19.5264 32.4902C19.6289 32.4756 20.9619 31.1572 22.4561 29.5898L25.1953 26.7334L25.1074 25.708C25.0635 25.0195 25.0781 24.7559 25.166 24.9023C25.3711 25.21 26.3672 28.1104 26.3672 28.374C26.3672 28.4912 25.5762 29.4873 24.6094 30.5859C23.6426 31.6846 22.8516 32.6221 22.8516 32.666C22.8516 32.71 24.3897 32.9297 26.25 33.1348C28.125 33.3545 29.6778 33.5889 29.7071 33.6475C29.7217 33.7061 30.6592 35.1855 31.7578 36.9141L33.7793 40.0635H37.5H41.2207L43.2276 36.9141C44.4287 35.0244 45.3662 33.7061 45.586 33.6035C45.7617 33.5156 47.3291 33.2812 49.043 33.1055C50.7422 32.915 52.1485 32.7246 52.1485 32.666C52.1485 32.6221 51.3574 31.6846 50.3906 30.5859C49.4239 29.4873 48.6328 28.5059 48.6328 28.4033C48.6328 28.2861 48.8819 27.4658 49.1748 26.5869L49.7315 24.9756L49.7754 25.8838L49.8194 26.792L52.544 29.6191C54.0528 31.1719 55.3711 32.4756 55.4737 32.4902C55.7227 32.5488 60.8203 31.626 60.9522 31.5088C61.0108 31.4648 60.9229 29.707 60.7764 27.6123C60.6153 25.5176 60.5127 23.6719 60.5274 23.5107C60.5567 23.3496 61.128 24.9463 61.8018 27.0557C62.4903 29.1797 63.0908 30.9082 63.1494 30.9082C63.252 30.9082 66.9434 26.5723 67.2803 26.0596C67.3975 25.8691 68.1153 22.8223 68.8623 19.292C69.624 15.7764 70.2539 12.8906 70.2686 12.8906C70.2979 12.8906 70.3125 16.6113 70.3125 21.167ZM29.8535 50.2148C29.8975 50.3613 29.7803 50.4053 29.4287 50.3613C29.1651 50.332 28.9307 50.2295 28.8867 50.127C28.8428 49.9805 28.96 49.9365 29.3115 49.9805C29.5752 50.0098 29.8096 50.1123 29.8535 50.2148ZM46.2012 50.1709C46.1426 50.3027 45.9229 50.3906 45.6006 50.3906C45.1612 50.3906 45.1026 50.3613 45.2637 50.1709C45.3662 50.0537 45.6299 49.9512 45.8643 49.9512C46.1719 49.9512 46.2598 50.0098 46.2012 50.1709ZM29.6338 52.1484H31.0694L31.9336 53.9795L32.8125 55.8105L31.7139 58.916C31.1133 60.6152 30.6006 62.0361 30.5567 62.0654C30.4981 62.1387 28.418 59.6484 28.418 59.502C28.418 59.4434 28.1836 57.627 27.9053 55.4443C27.627 53.2764 27.3926 51.4307 27.3926 51.3428C27.3926 51.2695 27.583 51.416 27.8028 51.6797L28.1983 52.1484H29.6338ZM47.0655 55.2539C46.8018 57.3779 46.5528 59.2529 46.5088 59.4287C46.4502 59.707 44.7803 61.8311 44.5459 61.9189C44.4434 61.9629 42.3194 56.1182 42.3487 55.8105C42.3487 55.6934 42.7295 54.8291 43.1836 53.9062L44.0186 52.2217L45.4688 52.1777C46.8018 52.1338 46.9336 52.1045 47.1973 51.7822C47.3584 51.5771 47.4903 51.416 47.5196 51.416C47.5342 51.416 47.3291 53.1445 47.0655 55.2539ZM40.8692 68.4961C40.8692 68.54 40.6934 68.8623 40.4883 69.2285L40.1074 69.873H37.5586H35.0098L34.6729 69.3164C34.4824 69.0234 34.2774 68.6865 34.2188 68.584C34.1309 68.4521 34.834 68.4082 37.4854 68.4082C39.3457 68.4082 40.8692 68.4521 40.8692 68.4961Z"/>
</mask>
<path d="M3.39846 4.2334C3.13479 4.27734 2.91506 4.36523 2.92971 4.42383C2.92971 4.49707 2.92971 10.3857 2.92971 17.5342L2.94436 30.542L6.40139 32.8125L9.87307 35.083L16.9776 36.3428L24.0821 37.5879L24.5947 38.3057C25.1221 39.0381 25.1074 39.0381 24.0967 38.3496C23.584 38.0127 22.7197 37.8076 17.6807 36.8408C14.458 36.2256 11.8067 35.7568 11.7774 35.7861C11.7334 35.8301 11.9824 37.3389 12.3194 39.1699L12.9492 42.4658L16.9336 45.8789L20.918 49.292L23.0274 49.1309C24.1699 49.043 25.166 49.0137 25.2246 49.0576C25.2832 49.1016 25.6348 51.5479 26.001 54.4922C26.3672 57.4365 26.7041 59.9707 26.7334 60.1318C26.7627 60.293 27.4951 61.2598 28.3301 62.2705L29.8828 64.1309L29.6778 64.6875L29.4873 65.2588L30.586 66.7236C31.1865 67.5293 31.7871 68.2764 31.919 68.3789C32.0508 68.4814 32.5489 69.2432 33.0322 70.0635L33.9258 71.5576L37.5147 71.6016L41.0889 71.6309L41.8946 70.2832C42.334 69.5361 42.9053 68.6865 43.1543 68.4082C43.4033 68.1299 44.0479 67.3096 44.6045 66.6064C45.586 65.3174 45.6006 65.3027 45.4248 64.7607C45.3369 64.4531 45.2637 64.1309 45.2637 64.043C45.2637 63.9697 45.9229 63.1055 46.7285 62.1387L48.1934 60.3662L48.8819 54.8584C49.2627 51.8115 49.6436 49.248 49.7315 49.1455C49.8487 48.999 50.3174 48.9844 51.958 49.1016L54.0381 49.248L57.6709 46.1279C59.6631 44.4287 61.4502 42.876 61.6406 42.7002C61.9336 42.4219 62.0801 41.8652 62.6221 39.0234C62.9883 37.1924 63.252 35.6689 63.2373 35.6543C63.2227 35.6543 60.5567 36.1377 57.3047 36.7676C51.7822 37.8223 51.3721 37.9248 50.7715 38.3496C50.4199 38.6133 50.083 38.8184 50.0244 38.8184C49.9805 38.8184 50.1416 38.5254 50.3906 38.1592C50.6397 37.793 50.8887 37.5 50.9473 37.5C51.0059 37.5 54.1846 36.9434 58.0371 36.2695L65.0098 35.0537L68.5401 32.7393L72.0703 30.4248V17.3584V4.29199L71.25 4.18945C70.7959 4.13086 70.4004 4.11621 70.3711 4.14551C70.3418 4.1748 69.3018 8.9209 68.0567 14.6924L65.8008 25.1807L64.878 26.25C64.3799 26.8359 63.9112 27.334 63.8526 27.3633C63.794 27.3926 63.6621 27.1582 63.5742 26.8506C63.2813 25.7666 59.9561 15.6592 59.8682 15.5859C59.8242 15.542 59.4141 15.5713 58.9746 15.6738L58.1543 15.835L58.2276 16.5967C58.374 17.915 59.1944 30.0732 59.1504 30.1025C59.0479 30.1904 55.9571 30.6738 55.9278 30.6006C55.8985 30.5713 54.9024 29.5459 53.7158 28.3154L51.5479 26.1035L51.6358 23.8623C51.6797 22.6172 51.753 20.9033 51.7969 20.0244L51.8701 18.457H51.0205H50.1709L48.3838 23.5693C47.3877 26.3672 46.5821 28.7256 46.5821 28.7988C46.5821 28.8721 47.0508 29.458 47.6074 30.1025C48.2813 30.8789 48.5596 31.3037 48.4424 31.3623C48.3545 31.4209 47.3877 31.5381 46.3184 31.6406L44.3848 31.8311L42.3047 35.1123L40.2246 38.3789H37.5H34.7754L32.6953 35.1123L30.6153 31.8311L28.6817 31.6406C27.6123 31.5381 26.6455 31.4062 26.543 31.3623C26.4112 31.2891 26.6748 30.9082 27.3926 30.0879C27.9492 29.458 28.418 28.8721 28.418 28.7988C28.418 28.7256 27.6123 26.3672 26.6309 23.5547L24.8291 18.457H23.9649H23.1006L23.2031 19.6582C23.2471 20.332 23.291 22.0459 23.3057 23.4814L23.3203 26.0889L22.1485 27.3633C21.5039 28.0664 20.5078 29.0918 19.9365 29.6484L18.9112 30.6592L17.3731 30.3955L15.8203 30.1318V29.6045C15.8203 29.3115 16.0108 26.3086 16.2598 22.9248C16.4942 19.541 16.6992 16.5674 16.6992 16.3184C16.6992 15.8057 16.6113 15.7471 15.6592 15.6006L15.0147 15.5127L13.125 21.46C12.085 24.7266 11.1914 27.3779 11.1328 27.3633C11.0742 27.334 10.6201 26.8359 10.1221 26.25L9.19924 25.1807L6.89944 14.6338L4.61428 4.10156L4.24807 4.11621C4.04299 4.13086 3.66213 4.1748 3.39846 4.2334ZM70.3125 21.167V29.4434L67.3535 31.4209L64.3799 33.3838L57.1289 34.6436C53.1446 35.3467 49.8047 35.9912 49.7022 36.0791C49.6143 36.1816 48.7354 37.4414 47.7539 38.877L45.9668 41.5137L46.3037 41.7627C46.626 42.0117 46.6406 42.0264 46.3916 42.3047C46.0547 42.6709 46.0694 42.7295 46.5528 42.9785C46.9629 43.1982 46.9922 43.1689 49.541 41.3672L52.1192 39.5508L54.8584 39.0234C56.3672 38.7451 57.627 38.54 57.6563 38.5693C57.6856 38.5986 55.8985 39.7266 53.6865 41.0889C51.4746 42.4365 49.6582 43.5791 49.6582 43.6084C49.6582 43.7988 50.4346 44.9707 50.5664 44.9707C50.6836 44.9707 58.6963 40.1221 60.4834 38.9795L60.835 38.7598L60.7324 39.4775C60.4688 41.4551 60.6153 41.2793 56.836 44.5166L53.3936 47.4756L52.6612 47.4023C52.2656 47.3584 51.211 47.2852 50.3174 47.2266L48.7061 47.1387L48.4278 47.666L48.1494 48.1934H46.3477H44.5313L43.7989 49.1748C43.1104 50.1123 40.4297 55.3271 40.4297 55.7373C40.4297 55.8545 41.1621 57.9639 42.041 60.4395L43.667 64.9365L43.0078 65.7568L42.3633 66.5771L37.544 66.6211L32.7246 66.6504L32.1826 65.918C31.875 65.5078 31.5967 65.0977 31.5528 64.9951C31.5235 64.8926 32.2119 62.7686 33.0908 60.2783L34.7022 55.7373L33.4571 53.1006C32.7686 51.6504 31.8457 49.9512 31.4063 49.3213L30.6006 48.1934H28.6963H26.792L26.5723 47.666L26.3526 47.124L25.0049 47.2266C24.2578 47.2852 23.1592 47.3584 22.5586 47.4023L21.46 47.4902L18.0176 44.502L14.5899 41.5283L14.3262 40.21C14.1797 39.4775 14.0772 38.8037 14.0918 38.7158C14.1211 38.6133 16.4209 39.9316 19.4824 41.8066L24.8291 45.0879L25.2393 44.4287C25.4737 44.0625 25.6201 43.6963 25.5908 43.5938C25.5469 43.5059 23.8037 42.3779 21.6944 41.1035C19.585 39.8145 17.8858 38.7451 17.9151 38.7305C17.9444 38.7012 19.043 38.8916 20.376 39.1406L22.7783 39.5947L25.459 41.4844L28.1397 43.374L28.5498 43.0371C28.7842 42.8467 29.0918 42.627 29.2383 42.5391C29.4873 42.3926 29.3701 42.1582 27.7002 39.6826C26.6895 38.2031 25.708 36.7676 25.4883 36.4893L25.0928 35.9766L17.8272 34.7021L10.5469 33.4277L7.61721 31.4941L4.68752 29.5459L4.70217 21.2549C4.70217 16.6992 4.73147 13.0225 4.76076 13.1104C4.79006 13.1836 5.41994 16.0547 6.16701 19.4824C6.89944 22.9102 7.60256 25.8691 7.71975 26.0596C8.05666 26.5869 11.7481 30.9082 11.8506 30.9082C11.9092 30.9082 12.4805 29.2822 13.1104 27.2754C14.3701 23.2764 14.5459 22.8662 14.4287 23.9502C14.1944 26.1621 13.916 31.4062 14.0186 31.4941C14.1797 31.6406 19.2481 32.5635 19.5264 32.4902C19.6289 32.4756 20.9619 31.1572 22.4561 29.5898L25.1953 26.7334L25.1074 25.708C25.0635 25.0195 25.0781 24.7559 25.166 24.9023C25.3711 25.21 26.3672 28.1104 26.3672 28.374C26.3672 28.4912 25.5762 29.4873 24.6094 30.5859C23.6426 31.6846 22.8516 32.6221 22.8516 32.666C22.8516 32.71 24.3897 32.9297 26.25 33.1348C28.125 33.3545 29.6778 33.5889 29.7071 33.6475C29.7217 33.7061 30.6592 35.1855 31.7578 36.9141L33.7793 40.0635H37.5H41.2207L43.2276 36.9141C44.4287 35.0244 45.3662 33.7061 45.586 33.6035C45.7617 33.5156 47.3291 33.2812 49.043 33.1055C50.7422 32.915 52.1485 32.7246 52.1485 32.666C52.1485 32.6221 51.3574 31.6846 50.3906 30.5859C49.4239 29.4873 48.6328 28.5059 48.6328 28.4033C48.6328 28.2861 48.8819 27.4658 49.1748 26.5869L49.7315 24.9756L49.7754 25.8838L49.8194 26.792L52.544 29.6191C54.0528 31.1719 55.3711 32.4756 55.4737 32.4902C55.7227 32.5488 60.8203 31.626 60.9522 31.5088C61.0108 31.4648 60.9229 29.707 60.7764 27.6123C60.6153 25.5176 60.5127 23.6719 60.5274 23.5107C60.5567 23.3496 61.128 24.9463 61.8018 27.0557C62.4903 29.1797 63.0908 30.9082 63.1494 30.9082C63.252 30.9082 66.9434 26.5723 67.2803 26.0596C67.3975 25.8691 68.1153 22.8223 68.8623 19.292C69.624 15.7764 70.2539 12.8906 70.2686 12.8906C70.2979 12.8906 70.3125 16.6113 70.3125 21.167ZM29.8535 50.2148C29.8975 50.3613 29.7803 50.4053 29.4287 50.3613C29.1651 50.332 28.9307 50.2295 28.8867 50.127C28.8428 49.9805 28.96 49.9365 29.3115 49.9805C29.5752 50.0098 29.8096 50.1123 29.8535 50.2148ZM46.2012 50.1709C46.1426 50.3027 45.9229 50.3906 45.6006 50.3906C45.1612 50.3906 45.1026 50.3613 45.2637 50.1709C45.3662 50.0537 45.6299 49.9512 45.8643 49.9512C46.1719 49.9512 46.2598 50.0098 46.2012 50.1709ZM29.6338 52.1484H31.0694L31.9336 53.9795L32.8125 55.8105L31.7139 58.916C31.1133 60.6152 30.6006 62.0361 30.5567 62.0654C30.4981 62.1387 28.418 59.6484 28.418 59.502C28.418 59.4434 28.1836 57.627 27.9053 55.4443C27.627 53.2764 27.3926 51.4307 27.3926 51.3428C27.3926 51.2695 27.583 51.416 27.8028 51.6797L28.1983 52.1484H29.6338ZM47.0655 55.2539C46.8018 57.3779 46.5528 59.2529 46.5088 59.4287C46.4502 59.707 44.7803 61.8311 44.5459 61.9189C44.4434 61.9629 42.3194 56.1182 42.3487 55.8105C42.3487 55.6934 42.7295 54.8291 43.1836 53.9062L44.0186 52.2217L45.4688 52.1777C46.8018 52.1338 46.9336 52.1045 47.1973 51.7822C47.3584 51.5771 47.4903 51.416 47.5196 51.416C47.5342 51.416 47.3291 53.1445 47.0655 55.2539ZM40.8692 68.4961C40.8692 68.54 40.6934 68.8623 40.4883 69.2285L40.1074 69.873H37.5586H35.0098L34.6729 69.3164C34.4824 69.0234 34.2774 68.6865 34.2188 68.584C34.1309 68.4521 34.834 68.4082 37.4854 68.4082C39.3457 68.4082 40.8692 68.4521 40.8692 68.4961Z" fill="#3E3737" stroke="#3E3737" stroke-width="2" mask="url(#path-2-inside-1)"/>
<path d="M35.6612 64.669L35.6612 64.669L35.663 64.6653L35.8219 64.3539C35.5355 64.1822 34.9551 63.8645 34.4091 63.5745C34.1262 63.4243 33.8583 63.2846 33.6537 63.1807C33.5955 63.2809 33.5299 63.3985 33.4617 63.5258C33.4016 63.6461 33.3479 63.759 33.3033 63.8575C33.3453 63.8803 33.3903 63.9047 33.4379 63.9303C33.7121 64.0781 34.0672 64.2661 34.4213 64.4514C34.7754 64.6367 35.1266 64.8182 35.393 64.9529C35.425 64.9691 35.4556 64.9846 35.4847 64.9992C35.5391 64.9047 35.5995 64.7923 35.6612 64.669Z" fill="#3E3737" stroke="#3E3737"/>
<path d="M40.3803 63.7472L40.3803 63.7473L40.3738 63.7508C39.9945 63.955 39.6408 64.1483 39.3767 64.294C39.3437 64.3122 39.3126 64.3294 39.2833 64.3456C39.3203 64.4225 39.3626 64.5065 39.4078 64.5927C39.4808 64.732 39.5574 64.8695 39.6257 64.9831C39.6596 64.9679 39.6964 64.951 39.7358 64.9325C40.0014 64.8075 40.3492 64.6267 40.6972 64.4347C41.0451 64.2427 41.3841 64.0445 41.6328 63.8861C41.6678 63.8638 41.7004 63.8427 41.7303 63.8229C41.6739 63.71 41.6054 63.5794 41.5345 63.4494C41.486 63.3606 41.4375 63.2742 41.3922 63.1959C41.3824 63.2011 41.3724 63.2064 41.3622 63.2118C41.1067 63.3477 40.7581 63.5365 40.3803 63.7472Z" fill="#3E3737" stroke="#3E3737"/>
<defs>
<linearGradient id="paint0_linear" x1="37.5" y1="0" x2="37.5" y2="75" gradientUnits="userSpaceOnUse">
<stop stop-color="#0ADE74"/>
<stop offset="1" stop-color="white" stop-opacity="0"/>
</linearGradient>
</defs>
</svg>
