<svg width="100" height="100" viewBox="0 0 100 100" fill="none" xmlns="http://www.w3.org/2000/svg">
<rect x="0.000213623" width="100" height="100" rx="16" fill="white"/>
<mask id="path-2-inside-1" fill="white">
<path d="M4.53147 5.64453C4.17991 5.70312 3.88694 5.82031 3.90647 5.89844C3.90647 5.99609 3.90647 13.8477 3.90647 23.3789L3.926 40.7227L8.53538 43.75L13.1643 46.7773L22.6369 48.457L32.1096 50.1172L32.7932 51.0742C33.4963 52.0508 33.4768 52.0508 32.1291 51.1328C31.4455 50.6836 30.2932 50.4102 23.5744 49.1211C19.2776 48.3008 15.7424 47.6758 15.7033 47.7148C15.6448 47.7734 15.9768 49.7852 16.426 52.2266L17.2658 56.6211L22.5783 61.1719L27.8908 65.7227L30.7033 65.5078C32.2268 65.3906 33.5549 65.3516 33.633 65.4102C33.7112 65.4688 34.1799 68.7305 34.6682 72.6562C35.1565 76.582 35.6057 79.9609 35.6448 80.1758C35.6838 80.3906 36.6604 81.6797 37.7737 83.0273L39.844 85.5078L39.5705 86.25L39.3166 87.0117L40.7815 88.9648C41.5823 90.0391 42.383 91.0352 42.5588 91.1719C42.7346 91.3086 43.3987 92.3242 44.0432 93.418L45.2346 95.4102L50.0198 95.4688L54.7854 95.5078L55.8596 93.7109C56.4455 92.7148 57.2073 91.582 57.5393 91.2109C57.8713 90.8398 58.7307 89.7461 59.4729 88.8086C60.7815 87.0898 60.801 87.0703 60.5666 86.3477C60.4494 85.9375 60.3518 85.5078 60.3518 85.3906C60.3518 85.293 61.2307 84.1406 62.3049 82.8516L64.258 80.4883L65.176 73.1445C65.6838 69.082 66.1916 65.6641 66.3088 65.5273C66.4651 65.332 67.0901 65.3125 69.2776 65.4688L72.051 65.6641L76.8948 61.5039C79.551 59.2383 81.9338 57.168 82.1877 56.9336C82.5783 56.5625 82.7737 55.8203 83.4963 52.0312C83.9846 49.5898 84.3362 47.5586 84.3166 47.5391C84.2971 47.5391 80.7424 48.1836 76.4065 49.0234C69.0432 50.4297 68.4963 50.5664 67.6955 51.1328C67.2268 51.4844 66.7776 51.7578 66.6994 51.7578C66.6409 51.7578 66.8557 51.3672 67.1877 50.8789C67.5198 50.3906 67.8518 50 67.9299 50C68.008 50 72.2463 49.2578 77.383 48.3594L86.6799 46.7383L91.3869 43.6523L96.094 40.5664V23.1445V5.72266L95.0002 5.58594C94.3948 5.50781 93.8674 5.48828 93.8283 5.52734C93.7893 5.56641 92.4026 11.8945 90.7424 19.5898L87.7346 33.5742L86.5041 35C85.8401 35.7812 85.2151 36.4453 85.1369 36.4844C85.0588 36.5234 84.883 36.2109 84.7658 35.8008C84.3752 34.3555 79.9416 20.8789 79.8244 20.7812C79.7658 20.7227 79.219 20.7617 78.633 20.8984L77.5393 21.1133L77.6369 22.1289C77.8323 23.8867 78.926 40.0977 78.8674 40.1367C78.7307 40.2539 74.6096 40.8984 74.5705 40.8008C74.5315 40.7617 73.2033 39.3945 71.6213 37.7539L68.7307 34.8047L68.8479 31.8164C68.9065 30.1562 69.0041 27.8711 69.0627 26.6992L69.1604 24.6094H68.0276H66.8948L64.5119 31.4258C63.1838 35.1562 62.1096 38.3008 62.1096 38.3984C62.1096 38.4961 62.7346 39.2773 63.4768 40.1367C64.3752 41.1719 64.7463 41.7383 64.5901 41.8164C64.4729 41.8945 63.1838 42.0508 61.758 42.1875L59.1799 42.4414L56.4065 46.8164L53.633 51.1719H50.0002H46.3674L43.594 46.8164L40.8205 42.4414L38.2424 42.1875C36.8166 42.0508 35.5276 41.875 35.3908 41.8164C35.2151 41.7188 35.5666 41.2109 36.5237 40.1172C37.2658 39.2773 37.8908 38.4961 37.8908 38.3984C37.8908 38.3008 36.8166 35.1562 35.508 31.4062L33.1057 24.6094H31.9533H30.801L30.9377 26.2109C30.9963 27.1094 31.0549 29.3945 31.0744 31.3086L31.094 34.7852L29.5315 36.4844C28.6721 37.4219 27.344 38.7891 26.5823 39.5312L25.2151 40.8789L23.1643 40.5273L21.094 40.1758V39.4727C21.094 39.082 21.3479 35.0781 21.6799 30.5664C21.9924 26.0547 22.2658 22.0898 22.2658 21.7578C22.2658 21.0742 22.1487 20.9961 20.8791 20.8008L20.0198 20.6836L17.5002 28.6133C16.1135 32.9688 14.9221 36.5039 14.844 36.4844C14.7658 36.4453 14.1604 35.7812 13.4963 35L12.2658 33.5742L9.19944 19.5117L6.15257 5.46875L5.66428 5.48828C5.39085 5.50781 4.88303 5.56641 4.53147 5.64453ZM93.7502 28.2227V39.2578L89.8049 41.8945L85.8401 44.5117L76.1721 46.1914C70.8596 47.1289 66.4065 47.9883 66.2698 48.1055C66.1526 48.2422 64.9807 49.9219 63.6721 51.8359L61.2893 55.3516L61.7385 55.6836C62.1682 56.0156 62.1877 56.0352 61.8557 56.4062C61.4065 56.8945 61.426 56.9727 62.0705 57.3047C62.6174 57.5977 62.6565 57.5586 66.0549 55.1562L69.4924 52.7344L73.1448 52.0312C75.1565 51.6602 76.8362 51.3867 76.8752 51.4258C76.9143 51.4648 74.5315 52.9688 71.5823 54.7852C68.633 56.582 66.2112 58.1055 66.2112 58.1445C66.2112 58.3984 67.2463 59.9609 67.4221 59.9609C67.5784 59.9609 78.2619 53.4961 80.6448 51.9727L81.1135 51.6797L80.9768 52.6367C80.6252 55.2734 80.8205 55.0391 75.7815 59.3555L71.1916 63.3008L70.2151 63.2031C69.6877 63.1445 68.2815 63.0469 67.0901 62.9688L64.9416 62.8516L64.5705 63.5547L64.1994 64.2578H61.7971H59.3752L58.3987 65.5664C57.4807 66.8164 53.9065 73.7695 53.9065 74.3164C53.9065 74.4727 54.883 77.2852 56.0549 80.5859L58.2229 86.582L57.344 87.6758L56.4846 88.7695L50.0588 88.8281L43.633 88.8672L42.9104 87.8906C42.5002 87.3438 42.1291 86.7969 42.0705 86.6602C42.0315 86.5234 42.9494 83.6914 44.1213 80.3711L46.2698 74.3164L44.6096 70.8008C43.6916 68.8672 42.4612 66.6016 41.8752 65.7617L40.801 64.2578H38.2619H35.7229L35.4299 63.5547L35.1369 62.832L33.3401 62.9688C32.344 63.0469 30.8791 63.1445 30.0783 63.2031L28.6135 63.3203L24.0237 59.3359L19.4533 55.3711L19.1018 53.6133C18.9065 52.6367 18.7698 51.7383 18.7893 51.6211C18.8283 51.4844 21.8948 53.2422 25.9768 55.7422L33.1057 60.1172L33.6526 59.2383C33.9651 58.75 34.1604 58.2617 34.1213 58.125C34.0627 58.0078 31.7385 56.5039 28.926 54.8047C26.1135 53.0859 23.8479 51.6602 23.8869 51.6406C23.926 51.6016 25.3908 51.8555 27.1682 52.1875L30.3713 52.793L33.9455 55.3125L37.5198 57.832L38.0666 57.3828C38.3791 57.1289 38.7893 56.8359 38.9846 56.7188C39.3166 56.5234 39.1604 56.2109 36.9338 52.9102C35.5862 50.9375 34.2776 49.0234 33.9846 48.6523L33.4573 47.9688L23.7698 46.2695L14.0627 44.5703L10.1565 41.9922L6.25022 39.3945L6.26975 28.3398C6.26975 22.2656 6.30882 17.3633 6.34788 17.4805C6.38694 17.5781 7.22678 21.4062 8.22288 25.9766C9.19944 30.5469 10.1369 34.4922 10.2932 34.7461C10.7424 35.4492 15.6643 41.2109 15.801 41.2109C15.8791 41.2109 16.6408 39.043 17.4807 36.3672C19.1604 31.0352 19.3948 30.4883 19.2385 31.9336C18.926 34.8828 18.5549 41.875 18.6916 41.9922C18.9065 42.1875 25.6643 43.418 26.0354 43.3203C26.1721 43.3008 27.9494 41.543 29.9416 39.4531L33.594 35.6445L33.4768 34.2773C33.4182 33.3594 33.4377 33.0078 33.5549 33.2031C33.8283 33.6133 35.1565 37.4805 35.1565 37.832C35.1565 37.9883 34.1018 39.3164 32.8127 40.7812C31.5237 42.2461 30.469 43.4961 30.469 43.5547C30.469 43.6133 32.5198 43.9062 35.0002 44.1797C37.5002 44.4727 39.5705 44.7852 39.6096 44.8633C39.6291 44.9414 40.8791 46.9141 42.344 49.2188L45.0393 53.418C45.0393 53.418 48.0629 53.418 50.0002 53.418C51.9376 53.418 54.9612 53.418 54.9612 53.418L57.6369 49.2188C59.2385 46.6992 60.4885 44.9414 60.7815 44.8047C61.0159 44.6875 63.1057 44.375 65.3909 44.1406C67.6565 43.8867 69.5315 43.6328 69.5315 43.5547C69.5315 43.4961 68.4768 42.2461 67.1877 40.7812C65.8987 39.3164 64.844 38.0078 64.844 37.8711C64.844 37.7148 65.176 36.6211 65.5666 35.4492L66.3088 33.3008L66.3674 34.5117L66.426 35.7227L70.0588 39.4922C72.0705 41.5625 73.8283 43.3008 73.9651 43.3203C74.2971 43.3984 81.094 42.168 81.2698 42.0117C81.3479 41.9531 81.2307 39.6094 81.0354 36.8164C80.8205 34.0234 80.6838 31.5625 80.7033 31.3477C80.7424 31.1328 81.5041 33.2617 82.4026 36.0742C83.3205 38.9062 84.1213 41.2109 84.1994 41.2109C84.3362 41.2109 89.258 35.4297 89.7073 34.7461C89.8635 34.4922 90.8205 30.4297 91.8166 25.7227C92.8323 21.0352 93.6721 17.1875 93.6916 17.1875C93.7307 17.1875 93.7502 22.1484 93.7502 28.2227ZM39.8049 66.9531C39.8635 67.1484 39.7073 67.207 39.2385 67.1484C38.8869 67.1094 38.5744 66.9727 38.5158 66.8359C38.4573 66.6406 38.6135 66.582 39.0823 66.6406C39.4338 66.6797 39.7463 66.8164 39.8049 66.9531ZM61.6018 66.8945C61.5237 67.0703 61.2307 67.1875 60.801 67.1875C60.2151 67.1875 60.1369 67.1484 60.3518 66.8945C60.4885 66.7383 60.8401 66.6016 61.1526 66.6016C61.5627 66.6016 61.6799 66.6797 61.6018 66.8945ZM39.5119 69.5312H41.426L42.5783 71.9727L43.7502 74.4141L42.2854 78.5547C41.4846 80.8203 40.801 82.7148 40.7424 82.7539C40.6643 82.8516 37.8908 79.5312 37.8908 79.3359C37.8908 79.2578 37.5783 76.8359 37.2073 73.9258C36.8362 71.0352 36.5237 68.5742 36.5237 68.457C36.5237 68.3594 36.7776 68.5547 37.0705 68.9062L37.5979 69.5312H39.5119ZM62.7541 73.6719C62.4026 76.5039 62.0705 79.0039 62.0119 79.2383C61.9338 79.6094 59.7073 82.4414 59.3948 82.5586C59.258 82.6172 56.426 74.8242 56.4651 74.4141C56.4651 74.2578 56.9729 73.1055 57.5784 71.875L58.6916 69.6289L60.6252 69.5703C62.4026 69.5117 62.5784 69.4727 62.9299 69.043C63.1448 68.7695 63.3205 68.5547 63.3596 68.5547C63.3791 68.5547 63.1057 70.8594 62.7541 73.6719ZM54.4924 91.3281C54.4924 91.3867 54.258 91.8164 53.9846 92.3047L53.4768 93.1641H50.0784H46.6799L46.2307 92.4219C45.9768 92.0312 45.7034 91.582 45.6252 91.4453C45.508 91.2695 46.4455 91.2109 49.9807 91.2109C52.4612 91.2109 54.4924 91.2695 54.4924 91.3281Z"/>
</mask>
<path d="M4.53147 5.64453C4.17991 5.70312 3.88694 5.82031 3.90647 5.89844C3.90647 5.99609 3.90647 13.8477 3.90647 23.3789L3.926 40.7227L8.53538 43.75L13.1643 46.7773L22.6369 48.457L32.1096 50.1172L32.7932 51.0742C33.4963 52.0508 33.4768 52.0508 32.1291 51.1328C31.4455 50.6836 30.2932 50.4102 23.5744 49.1211C19.2776 48.3008 15.7424 47.6758 15.7033 47.7148C15.6448 47.7734 15.9768 49.7852 16.426 52.2266L17.2658 56.6211L22.5783 61.1719L27.8908 65.7227L30.7033 65.5078C32.2268 65.3906 33.5549 65.3516 33.633 65.4102C33.7112 65.4688 34.1799 68.7305 34.6682 72.6562C35.1565 76.582 35.6057 79.9609 35.6448 80.1758C35.6838 80.3906 36.6604 81.6797 37.7737 83.0273L39.844 85.5078L39.5705 86.25L39.3166 87.0117L40.7815 88.9648C41.5823 90.0391 42.383 91.0352 42.5588 91.1719C42.7346 91.3086 43.3987 92.3242 44.0432 93.418L45.2346 95.4102L50.0198 95.4688L54.7854 95.5078L55.8596 93.7109C56.4455 92.7148 57.2073 91.582 57.5393 91.2109C57.8713 90.8398 58.7307 89.7461 59.4729 88.8086C60.7815 87.0898 60.801 87.0703 60.5666 86.3477C60.4494 85.9375 60.3518 85.5078 60.3518 85.3906C60.3518 85.293 61.2307 84.1406 62.3049 82.8516L64.258 80.4883L65.176 73.1445C65.6838 69.082 66.1916 65.6641 66.3088 65.5273C66.4651 65.332 67.0901 65.3125 69.2776 65.4688L72.051 65.6641L76.8948 61.5039C79.551 59.2383 81.9338 57.168 82.1877 56.9336C82.5783 56.5625 82.7737 55.8203 83.4963 52.0312C83.9846 49.5898 84.3362 47.5586 84.3166 47.5391C84.2971 47.5391 80.7424 48.1836 76.4065 49.0234C69.0432 50.4297 68.4963 50.5664 67.6955 51.1328C67.2268 51.4844 66.7776 51.7578 66.6994 51.7578C66.6409 51.7578 66.8557 51.3672 67.1877 50.8789C67.5198 50.3906 67.8518 50 67.9299 50C68.008 50 72.2463 49.2578 77.383 48.3594L86.6799 46.7383L91.3869 43.6523L96.094 40.5664V23.1445V5.72266L95.0002 5.58594C94.3948 5.50781 93.8674 5.48828 93.8283 5.52734C93.7893 5.56641 92.4026 11.8945 90.7424 19.5898L87.7346 33.5742L86.5041 35C85.8401 35.7812 85.2151 36.4453 85.1369 36.4844C85.0588 36.5234 84.883 36.2109 84.7658 35.8008C84.3752 34.3555 79.9416 20.8789 79.8244 20.7812C79.7658 20.7227 79.219 20.7617 78.633 20.8984L77.5393 21.1133L77.6369 22.1289C77.8323 23.8867 78.926 40.0977 78.8674 40.1367C78.7307 40.2539 74.6096 40.8984 74.5705 40.8008C74.5315 40.7617 73.2033 39.3945 71.6213 37.7539L68.7307 34.8047L68.8479 31.8164C68.9065 30.1562 69.0041 27.8711 69.0627 26.6992L69.1604 24.6094H68.0276H66.8948L64.5119 31.4258C63.1838 35.1562 62.1096 38.3008 62.1096 38.3984C62.1096 38.4961 62.7346 39.2773 63.4768 40.1367C64.3752 41.1719 64.7463 41.7383 64.5901 41.8164C64.4729 41.8945 63.1838 42.0508 61.758 42.1875L59.1799 42.4414L56.4065 46.8164L53.633 51.1719H50.0002H46.3674L43.594 46.8164L40.8205 42.4414L38.2424 42.1875C36.8166 42.0508 35.5276 41.875 35.3908 41.8164C35.2151 41.7188 35.5666 41.2109 36.5237 40.1172C37.2658 39.2773 37.8908 38.4961 37.8908 38.3984C37.8908 38.3008 36.8166 35.1562 35.508 31.4062L33.1057 24.6094H31.9533H30.801L30.9377 26.2109C30.9963 27.1094 31.0549 29.3945 31.0744 31.3086L31.094 34.7852L29.5315 36.4844C28.6721 37.4219 27.344 38.7891 26.5823 39.5312L25.2151 40.8789L23.1643 40.5273L21.094 40.1758V39.4727C21.094 39.082 21.3479 35.0781 21.6799 30.5664C21.9924 26.0547 22.2658 22.0898 22.2658 21.7578C22.2658 21.0742 22.1487 20.9961 20.8791 20.8008L20.0198 20.6836L17.5002 28.6133C16.1135 32.9688 14.9221 36.5039 14.844 36.4844C14.7658 36.4453 14.1604 35.7812 13.4963 35L12.2658 33.5742L9.19944 19.5117L6.15257 5.46875L5.66428 5.48828C5.39085 5.50781 4.88303 5.56641 4.53147 5.64453ZM93.7502 28.2227V39.2578L89.8049 41.8945L85.8401 44.5117L76.1721 46.1914C70.8596 47.1289 66.4065 47.9883 66.2698 48.1055C66.1526 48.2422 64.9807 49.9219 63.6721 51.8359L61.2893 55.3516L61.7385 55.6836C62.1682 56.0156 62.1877 56.0352 61.8557 56.4062C61.4065 56.8945 61.426 56.9727 62.0705 57.3047C62.6174 57.5977 62.6565 57.5586 66.0549 55.1562L69.4924 52.7344L73.1448 52.0312C75.1565 51.6602 76.8362 51.3867 76.8752 51.4258C76.9143 51.4648 74.5315 52.9688 71.5823 54.7852C68.633 56.582 66.2112 58.1055 66.2112 58.1445C66.2112 58.3984 67.2463 59.9609 67.4221 59.9609C67.5784 59.9609 78.2619 53.4961 80.6448 51.9727L81.1135 51.6797L80.9768 52.6367C80.6252 55.2734 80.8205 55.0391 75.7815 59.3555L71.1916 63.3008L70.2151 63.2031C69.6877 63.1445 68.2815 63.0469 67.0901 62.9688L64.9416 62.8516L64.5705 63.5547L64.1994 64.2578H61.7971H59.3752L58.3987 65.5664C57.4807 66.8164 53.9065 73.7695 53.9065 74.3164C53.9065 74.4727 54.883 77.2852 56.0549 80.5859L58.2229 86.582L57.344 87.6758L56.4846 88.7695L50.0588 88.8281L43.633 88.8672L42.9104 87.8906C42.5002 87.3438 42.1291 86.7969 42.0705 86.6602C42.0315 86.5234 42.9494 83.6914 44.1213 80.3711L46.2698 74.3164L44.6096 70.8008C43.6916 68.8672 42.4612 66.6016 41.8752 65.7617L40.801 64.2578H38.2619H35.7229L35.4299 63.5547L35.1369 62.832L33.3401 62.9688C32.344 63.0469 30.8791 63.1445 30.0783 63.2031L28.6135 63.3203L24.0237 59.3359L19.4533 55.3711L19.1018 53.6133C18.9065 52.6367 18.7698 51.7383 18.7893 51.6211C18.8283 51.4844 21.8948 53.2422 25.9768 55.7422L33.1057 60.1172L33.6526 59.2383C33.9651 58.75 34.1604 58.2617 34.1213 58.125C34.0627 58.0078 31.7385 56.5039 28.926 54.8047C26.1135 53.0859 23.8479 51.6602 23.8869 51.6406C23.926 51.6016 25.3908 51.8555 27.1682 52.1875L30.3713 52.793L33.9455 55.3125L37.5198 57.832L38.0666 57.3828C38.3791 57.1289 38.7893 56.8359 38.9846 56.7188C39.3166 56.5234 39.1604 56.2109 36.9338 52.9102C35.5862 50.9375 34.2776 49.0234 33.9846 48.6523L33.4573 47.9688L23.7698 46.2695L14.0627 44.5703L10.1565 41.9922L6.25022 39.3945L6.26975 28.3398C6.26975 22.2656 6.30882 17.3633 6.34788 17.4805C6.38694 17.5781 7.22678 21.4062 8.22288 25.9766C9.19944 30.5469 10.1369 34.4922 10.2932 34.7461C10.7424 35.4492 15.6643 41.2109 15.801 41.2109C15.8791 41.2109 16.6408 39.043 17.4807 36.3672C19.1604 31.0352 19.3948 30.4883 19.2385 31.9336C18.926 34.8828 18.5549 41.875 18.6916 41.9922C18.9065 42.1875 25.6643 43.418 26.0354 43.3203C26.1721 43.3008 27.9494 41.543 29.9416 39.4531L33.594 35.6445L33.4768 34.2773C33.4182 33.3594 33.4377 33.0078 33.5549 33.2031C33.8283 33.6133 35.1565 37.4805 35.1565 37.832C35.1565 37.9883 34.1018 39.3164 32.8127 40.7812C31.5237 42.2461 30.469 43.4961 30.469 43.5547C30.469 43.6133 32.5198 43.9062 35.0002 44.1797C37.5002 44.4727 39.5705 44.7852 39.6096 44.8633C39.6291 44.9414 40.8791 46.9141 42.344 49.2188L45.0393 53.418C45.0393 53.418 48.0629 53.418 50.0002 53.418C51.9376 53.418 54.9612 53.418 54.9612 53.418L57.6369 49.2188C59.2385 46.6992 60.4885 44.9414 60.7815 44.8047C61.0159 44.6875 63.1057 44.375 65.3909 44.1406C67.6565 43.8867 69.5315 43.6328 69.5315 43.5547C69.5315 43.4961 68.4768 42.2461 67.1877 40.7812C65.8987 39.3164 64.844 38.0078 64.844 37.8711C64.844 37.7148 65.176 36.6211 65.5666 35.4492L66.3088 33.3008L66.3674 34.5117L66.426 35.7227L70.0588 39.4922C72.0705 41.5625 73.8283 43.3008 73.9651 43.3203C74.2971 43.3984 81.094 42.168 81.2698 42.0117C81.3479 41.9531 81.2307 39.6094 81.0354 36.8164C80.8205 34.0234 80.6838 31.5625 80.7033 31.3477C80.7424 31.1328 81.5041 33.2617 82.4026 36.0742C83.3205 38.9062 84.1213 41.2109 84.1994 41.2109C84.3362 41.2109 89.258 35.4297 89.7073 34.7461C89.8635 34.4922 90.8205 30.4297 91.8166 25.7227C92.8323 21.0352 93.6721 17.1875 93.6916 17.1875C93.7307 17.1875 93.7502 22.1484 93.7502 28.2227ZM39.8049 66.9531C39.8635 67.1484 39.7073 67.207 39.2385 67.1484C38.8869 67.1094 38.5744 66.9727 38.5158 66.8359C38.4573 66.6406 38.6135 66.582 39.0823 66.6406C39.4338 66.6797 39.7463 66.8164 39.8049 66.9531ZM61.6018 66.8945C61.5237 67.0703 61.2307 67.1875 60.801 67.1875C60.2151 67.1875 60.1369 67.1484 60.3518 66.8945C60.4885 66.7383 60.8401 66.6016 61.1526 66.6016C61.5627 66.6016 61.6799 66.6797 61.6018 66.8945ZM39.5119 69.5312H41.426L42.5783 71.9727L43.7502 74.4141L42.2854 78.5547C41.4846 80.8203 40.801 82.7148 40.7424 82.7539C40.6643 82.8516 37.8908 79.5312 37.8908 79.3359C37.8908 79.2578 37.5783 76.8359 37.2073 73.9258C36.8362 71.0352 36.5237 68.5742 36.5237 68.457C36.5237 68.3594 36.7776 68.5547 37.0705 68.9062L37.5979 69.5312H39.5119ZM62.7541 73.6719C62.4026 76.5039 62.0705 79.0039 62.0119 79.2383C61.9338 79.6094 59.7073 82.4414 59.3948 82.5586C59.258 82.6172 56.426 74.8242 56.4651 74.4141C56.4651 74.2578 56.9729 73.1055 57.5784 71.875L58.6916 69.6289L60.6252 69.5703C62.4026 69.5117 62.5784 69.4727 62.9299 69.043C63.1448 68.7695 63.3205 68.5547 63.3596 68.5547C63.3791 68.5547 63.1057 70.8594 62.7541 73.6719ZM54.4924 91.3281C54.4924 91.3867 54.258 91.8164 53.9846 92.3047L53.4768 93.1641H50.0784H46.6799L46.2307 92.4219C45.9768 92.0312 45.7034 91.582 45.6252 91.4453C45.508 91.2695 46.4455 91.2109 49.9807 91.2109C52.4612 91.2109 54.4924 91.2695 54.4924 91.3281Z" fill="#3E3737" stroke="#3E3737" stroke-width="2" mask="url(#path-2-inside-1)"/>
<path d="M47.6975 86.2998L47.6975 86.2998L47.6994 86.2962L47.981 85.7442L47.9372 85.7163C47.5914 85.5016 46.7444 85.0369 45.9571 84.6188C45.5657 84.411 45.1952 84.2179 44.9177 84.0773C44.879 84.0577 44.8423 84.0393 44.8079 84.022C44.7107 84.1826 44.5921 84.3924 44.4677 84.6244C44.3564 84.8474 44.2604 85.0529 44.1903 85.2162C44.2812 85.2661 44.3872 85.3237 44.505 85.3872C44.8713 85.5846 45.3455 85.8357 45.8179 86.0829C46.2905 86.3301 46.7595 86.5725 47.1156 86.7526C47.2126 86.8017 47.3005 86.8458 47.3775 86.884C47.4708 86.7317 47.583 86.529 47.6975 86.2998Z" fill="#3E3737" stroke="#3E3737"/>
<path d="M53.7594 84.8507L53.7594 84.8508L53.7529 84.8543C53.2466 85.1269 52.7745 85.3849 52.4219 85.5794C52.3252 85.6327 52.2377 85.6812 52.161 85.7239C52.2244 85.8632 52.3064 86.0297 52.3962 86.201C52.512 86.4219 52.6352 86.6407 52.7399 86.809C52.7498 86.8249 52.7593 86.8401 52.7686 86.8546C52.8482 86.8212 52.9433 86.7786 53.0521 86.7274C53.4107 86.5587 53.8778 86.3158 54.3436 86.0588C54.8093 85.8018 55.2646 85.5357 55.6001 85.322C55.6986 85.2592 55.7837 85.203 55.854 85.1542C55.8517 85.1494 55.8493 85.1445 55.847 85.1396C55.7623 84.9637 55.6463 84.7403 55.5257 84.5194C55.4308 84.3455 55.3354 84.1776 55.2528 84.0393C55.1975 84.0684 55.1368 84.1005 55.0715 84.1353C54.73 84.3169 54.2641 84.5693 53.7594 84.8507ZM55.9574 85.3907C55.9572 85.3901 55.9569 85.3893 55.9566 85.3882C55.9586 85.3959 55.9594 85.3973 55.9574 85.3907Z" fill="#3E3737" stroke="#3E3737"/>
</svg>
