<svg width="694" height="503" viewBox="0 0 694 503" fill="none" xmlns="http://www.w3.org/2000/svg">
<g clip-path="url(#clip0)">
<path opacity="0.1" d="M677.182 341.996C676.56 342.425 675.988 342.841 675.379 343.246C673.13 344.747 670.777 346.102 668.334 347.302C655.539 353.669 639.765 356.78 624.402 358.892C589.944 363.634 554.766 364.556 519.737 365.46C425.088 367.913 330.21 370.36 235.791 364.708C198.486 362.478 160.361 358.746 126.557 347.302C121.711 345.666 116.961 343.863 112.306 341.891C102.887 337.894 93.8402 333.029 86.3171 327.219C79.2478 321.773 73.5153 315.516 70.0895 308.404C62.9456 293.591 66.7259 276.953 74.8832 262.433C78.2711 256.56 82.0918 250.918 86.3171 245.549C92.6154 237.374 99.5603 229.433 105.896 221.264C128.44 192.225 143.151 155.487 122.341 125.703C116.36 117.146 107.718 109.634 102.843 100.702C96.6257 89.2756 97.1044 76.5874 99.0816 64.263C99.3385 62.698 99.6101 61.1486 99.8961 59.6149C103.272 41.3396 109.626 21.6499 129.218 10.241C149.567 -1.6139 178.466 -1.01529 203.722 3.19848C242.997 9.81845 279.226 23.5983 315.841 36.0401C352.456 48.4819 390.762 59.8497 431.001 61.0704C466.534 62.1502 507.979 54.0689 531.562 33.0646C554.467 12.6648 597.523 11.1096 628.555 23.434C649.856 31.8909 665.748 47.1262 672.45 64.263C673.808 67.7034 674.785 71.2671 675.366 74.8972C675.903 78.2147 676.078 81.5756 675.888 84.9269C675.795 86.5819 675.615 88.2193 675.366 89.839C670.181 123.655 632.857 150.328 610.17 180.535C599.084 195.289 591.256 213.013 598.879 228.923C610.506 253.167 650.938 261.788 675.354 279.829C679.948 283.112 683.994 287.029 687.353 291.449C699.198 307.506 694.827 329.191 677.182 341.996Z" fill="#048243"/>
<path d="M160.404 190.653C160.404 190.653 131.804 142.81 88.7046 129.031C70.618 123.244 54.8319 112.363 44.0383 97.4919C38.9284 90.4312 34.5162 82.9425 30.8573 75.1202" stroke="#535461" stroke-width="2" stroke-miterlimit="10"/>
<path d="M3.75565 66.2642C8.66745 70.7421 31.5353 75.4371 31.5353 75.4371C31.5353 75.4371 25.9396 54.0044 21.0153 49.503C18.6483 47.3873 15.4933 46.2372 12.2341 46.302C8.97492 46.3669 5.87408 47.6414 3.60358 49.8494C1.33307 52.0574 0.0758262 55.0211 0.104292 58.098C0.132758 61.175 1.44464 64.1174 3.75565 66.2877V66.2642Z" fill="#048243"/>
<path d="M16.6939 105.051C23.4026 106.307 45.2943 98.4837 45.2943 98.4837C45.2943 98.4837 28.2273 83.3658 21.5124 82.1099C18.3211 81.5794 15.0366 82.2501 12.3629 83.9782C9.68912 85.7062 7.83889 88.3541 7.2087 91.3544C6.57852 94.3547 7.21852 97.4687 8.99155 100.029C10.7646 102.589 13.5296 104.392 16.6939 105.051V105.051Z" fill="#048243"/>
<path d="M63.7912 147.036C70.2574 144.923 84.9306 127.745 84.9306 127.745C84.9306 127.745 62.1249 122.821 55.665 124.934C54.0799 125.399 52.61 126.16 51.3423 127.171C50.0747 128.182 49.0352 129.424 48.2856 130.822C47.536 132.219 47.0915 133.745 46.9785 135.308C46.8656 136.871 47.0864 138.44 47.628 139.921C48.1696 141.402 49.0209 142.765 50.1313 143.929C51.2417 145.094 52.5886 146.036 54.0921 146.699C55.5956 147.363 57.2251 147.735 58.8837 147.793C60.5424 147.85 62.1964 147.593 63.7477 147.036H63.7912Z" fill="#048243"/>
<path d="M107.003 171.209C113.755 170.153 131.313 155.569 131.313 155.569C131.313 155.569 109.72 147.077 102.967 148.128C99.7248 148.633 96.8275 150.333 94.9129 152.854C92.9983 155.376 92.2233 158.512 92.7584 161.573C93.2935 164.634 95.0948 167.369 97.7661 169.176C100.437 170.983 103.76 171.715 107.003 171.209V171.209Z" fill="#048243"/>
<path d="M64.3446 81.7343C64.3446 88.1899 51.9718 106.929 51.9718 106.929C51.9718 106.929 39.5742 88.2016 39.568 81.746C39.531 80.1883 39.8241 78.6394 40.4301 77.1901C41.036 75.7409 41.9426 74.4205 43.0966 73.3065C44.2507 72.1925 45.6288 71.3074 47.1503 70.7031C48.6717 70.0989 50.3057 69.7876 51.9563 69.7876C53.6069 69.7876 55.2409 70.0989 56.7623 70.7031C58.2837 71.3074 59.6619 72.1925 60.8159 73.3065C61.9699 74.4205 62.8765 75.7409 63.4825 77.1901C64.0885 78.6394 64.3816 80.1883 64.3446 81.746V81.7343Z" fill="#048243"/>
<path d="M114.507 110.65C112.462 116.812 94.7107 131.19 94.7107 131.19C94.7107 131.19 88.8165 109.799 90.8372 103.607C91.9233 100.772 94.1269 98.4427 96.9885 97.1043C99.8501 95.7659 103.149 95.522 106.196 96.4236C109.244 97.3251 111.805 99.3025 113.345 101.943C114.885 104.584 115.286 107.684 114.464 110.597L114.507 110.65Z" fill="#048243"/>
<path d="M159.173 145.011C158.266 151.414 143.344 168.416 143.344 168.416C143.344 168.416 133.707 148.298 134.639 141.895C135.122 138.858 136.851 136.122 139.453 134.278C142.054 132.434 145.32 131.63 148.544 132.039C151.769 132.448 154.694 134.038 156.687 136.465C158.68 138.892 159.582 141.962 159.198 145.011H159.173Z" fill="#048243"/>
<path opacity="0.25" d="M3.75565 66.2642C8.66745 70.7421 31.5353 75.4371 31.5353 75.4371C31.5353 75.4371 25.9396 54.0044 21.0153 49.503C18.6483 47.3873 15.4933 46.2372 12.2341 46.302C8.97492 46.3669 5.87408 47.6414 3.60358 49.8494C1.33307 52.0574 0.0758262 55.0211 0.104292 58.098C0.132758 61.175 1.44464 64.1174 3.75565 66.2877V66.2642Z" fill="black"/>
<path opacity="0.25" d="M16.6939 105.051C23.4026 106.307 45.2943 98.4837 45.2943 98.4837C45.2943 98.4837 28.2273 83.3658 21.5124 82.1099C18.3211 81.5794 15.0366 82.2501 12.3629 83.9782C9.68912 85.7062 7.83889 88.3541 7.2087 91.3544C6.57852 94.3547 7.21852 97.4687 8.99155 100.029C10.7646 102.589 13.5296 104.392 16.6939 105.051V105.051Z" fill="black"/>
<path opacity="0.25" d="M63.7912 147.036C70.2574 144.923 84.9306 127.745 84.9306 127.745C84.9306 127.745 62.1249 122.821 55.665 124.934C54.0799 125.399 52.61 126.16 51.3423 127.171C50.0747 128.182 49.0352 129.424 48.2856 130.822C47.536 132.219 47.0915 133.745 46.9785 135.308C46.8656 136.871 47.0864 138.44 47.628 139.921C48.1696 141.402 49.0209 142.765 50.1313 143.929C51.2417 145.094 52.5886 146.036 54.0921 146.699C55.5956 147.363 57.2251 147.735 58.8837 147.793C60.5424 147.85 62.1964 147.593 63.7477 147.036H63.7912Z" fill="black"/>
<path opacity="0.25" d="M107.003 171.209C113.755 170.153 131.313 155.569 131.313 155.569C131.313 155.569 109.72 147.077 102.967 148.128C99.7248 148.633 96.8275 150.333 94.9129 152.854C92.9983 155.376 92.2233 158.512 92.7584 161.573C93.2935 164.634 95.0948 167.369 97.7661 169.176C100.437 170.983 103.76 171.715 107.003 171.209V171.209Z" fill="black"/>
<path opacity="0.25" d="M64.3446 81.7343C64.3446 88.1899 51.9718 106.929 51.9718 106.929C51.9718 106.929 39.5742 88.2016 39.568 81.746C39.531 80.1883 39.8241 78.6394 40.4301 77.1901C41.036 75.7409 41.9426 74.4205 43.0966 73.3065C44.2507 72.1925 45.6288 71.3074 47.1503 70.7031C48.6717 70.0989 50.3057 69.7876 51.9563 69.7876C53.6069 69.7876 55.2409 70.0989 56.7623 70.7031C58.2837 71.3074 59.6619 72.1925 60.8159 73.3065C61.9699 74.4205 62.8765 75.7409 63.4825 77.1901C64.0885 78.6394 64.3816 80.1883 64.3446 81.746V81.7343Z" fill="black"/>
<path opacity="0.25" d="M114.507 110.65C112.462 116.812 94.7107 131.19 94.7107 131.19C94.7107 131.19 88.8165 109.799 90.8372 103.607C91.9233 100.772 94.1269 98.4427 96.9885 97.1043C99.8501 95.7659 103.149 95.522 106.196 96.4236C109.244 97.3251 111.805 99.3025 113.345 101.943C114.885 104.584 115.286 107.684 114.464 110.597L114.507 110.65Z" fill="black"/>
<path opacity="0.25" d="M159.173 145.011C158.266 151.414 143.344 168.416 143.344 168.416C143.344 168.416 133.707 148.298 134.639 141.895C135.122 138.858 136.851 136.122 139.453 134.278C142.054 132.434 145.32 131.63 148.544 132.039C151.769 132.448 154.694 134.038 156.687 136.465C158.68 138.892 159.582 141.962 159.198 145.011H159.173Z" fill="black"/>
<path d="M158.757 189.702C158.757 189.702 153.161 135.017 119.661 105.931C105.616 93.7241 95.8547 77.7611 92.3667 60.014C90.7295 51.6023 89.9136 43.0666 89.9295 34.5142" stroke="#535461" stroke-width="2" stroke-miterlimit="10"/>
<path d="M68.9455 16.0686C71.5071 22.0606 90.4144 35.0599 90.4144 35.0599C90.4144 35.0599 94.4869 13.3162 91.9315 7.32416C90.703 4.44465 88.313 2.14372 85.2872 0.927546C82.2614 -0.288624 78.8478 -0.320411 75.7972 0.839176C72.7465 1.99876 70.3089 4.25474 69.0205 7.11081C67.732 9.96689 67.6984 13.1891 68.9268 16.0686H68.9455Z" fill="#048243"/>
<path d="M64.1021 56.4751C69.6978 60.19 93.0568 61.4049 93.0568 61.4049C93.0568 61.4049 83.998 41.0637 78.4023 37.3488C75.7153 35.5588 72.385 34.8497 69.1441 35.3775C65.9032 35.9052 63.0172 37.6266 61.1208 40.1629C59.2245 42.6992 58.4733 45.8427 59.0324 48.9018C59.5915 51.9609 61.4151 54.6851 64.1021 56.4751V56.4751Z" fill="#048243"/>
<path d="M89.1647 112.862C96.0039 113.408 116.795 103.32 116.795 103.32C116.795 103.32 98.0619 90.0972 91.2413 89.5573C89.6002 89.3924 87.9408 89.5386 86.3604 89.9873C84.7799 90.436 83.3104 91.1781 82.038 92.1702C80.7656 93.1623 79.7159 94.3843 78.9507 95.7645C78.1854 97.1448 77.72 98.6554 77.5816 100.208C77.4433 101.76 77.6349 103.323 78.1452 104.804C78.6554 106.286 79.4741 107.656 80.553 108.835C81.632 110.014 82.9496 110.977 84.4284 111.669C85.9072 112.36 87.5175 112.766 89.1647 112.862Z" fill="#048243"/>
<path d="M118.287 151.502C124.915 153.122 147.23 146.502 147.23 146.502C147.23 146.502 131.133 130.48 124.511 128.86C121.35 128.138 118.015 128.617 115.225 130.194C112.435 131.772 110.414 134.322 109.598 137.293C108.782 140.265 109.237 143.42 110.863 146.078C112.49 148.737 115.159 150.685 118.294 151.502H118.287Z" fill="#048243"/>
<path d="M117.697 53.3881C114.93 59.2921 95.5687 71.6811 95.5687 71.6811C95.5687 71.6811 92.2734 49.8258 95.0402 43.916C95.681 42.4861 96.6169 41.191 97.7934 40.1061C98.97 39.0212 100.364 38.1683 101.893 37.597C103.422 37.0257 105.057 36.7475 106.701 36.7787C108.346 36.8098 109.967 37.1497 111.471 37.7784C112.975 38.4071 114.331 39.3121 115.46 40.4407C116.59 41.5693 117.47 42.8988 118.049 44.3517C118.629 45.8046 118.896 47.3519 118.836 48.9034C118.775 50.4548 118.388 51.9794 117.697 53.3881V53.3881Z" fill="#048243"/>
<path d="M151.147 98.9767C146.633 103.83 124.231 110.186 124.231 110.186C124.231 110.186 128.011 88.4012 132.532 83.5477C133.605 82.394 134.908 81.4511 136.368 80.7729C137.827 80.0947 139.414 79.6944 141.037 79.5949C142.66 79.4955 144.288 79.6988 145.828 80.1932C147.368 80.6877 148.79 81.4636 150.012 82.4767C151.234 83.4898 152.233 84.7202 152.952 86.0976C153.67 87.4751 154.094 88.9727 154.2 90.5049C154.305 92.037 154.09 93.5738 153.566 95.0274C153.042 96.481 152.22 97.823 151.147 98.9767V98.9767Z" fill="#048243"/>
<path d="M177.26 147.505C173.679 153.01 152.738 162.846 152.738 162.846C152.738 162.846 152.564 140.768 156.145 135.263C157.865 132.617 160.628 130.724 163.827 130.001C167.025 129.278 170.397 129.784 173.2 131.407C176.003 133.031 178.008 135.639 178.775 138.658C179.541 141.677 179.005 144.859 177.285 147.505H177.26Z" fill="#048243"/>
<path opacity="0.1" d="M253.772 499.843C292.069 499.843 323.116 496.027 323.116 491.321C323.116 486.615 292.069 482.8 253.772 482.8C215.475 482.8 184.429 486.615 184.429 491.321C184.429 496.027 215.475 499.843 253.772 499.843Z" fill="#048243"/>
<path opacity="0.1" d="M113.705 494.068C125.339 494.068 134.77 492.544 134.77 490.664C134.77 488.784 125.339 487.26 113.705 487.26C102.071 487.26 92.6403 488.784 92.6403 490.664C92.6403 492.544 102.071 494.068 113.705 494.068Z" fill="#048243"/>
<path d="M118.281 452.763C118.281 452.763 121.695 456.983 116.702 463.327C111.709 469.671 107.593 475.065 109.241 479.038C109.241 479.038 116.77 467.212 122.919 467.048C129.068 466.884 125.033 459.876 118.281 452.763Z" fill="#048243"/>
<path opacity="0.1" d="M118.281 452.763C118.579 453.172 118.814 453.618 118.977 454.09C124.959 460.721 128.148 466.913 122.397 467.066C117.044 467.212 110.615 476.25 109.079 478.533C109.13 478.71 109.19 478.884 109.26 479.055C109.26 479.055 116.789 467.23 122.938 467.066C129.087 466.901 125.033 459.876 118.281 452.763Z" fill="black"/>
<path d="M124.629 458.139C124.629 459.624 124.455 460.827 124.237 460.827C124.02 460.827 123.84 459.653 123.84 458.139C123.84 456.625 124.063 457.353 124.281 457.353C124.499 457.353 124.629 456.654 124.629 458.139Z" fill="#FFD037"/>
<path d="M126.811 459.912C125.431 460.622 124.225 461.05 124.119 460.868C124.014 460.686 125.052 459.964 126.432 459.254C127.812 458.544 127.265 459.061 127.371 459.254C127.477 459.448 128.192 459.201 126.811 459.912Z" fill="#FFD037"/>
<path d="M100.238 452.763C100.238 452.763 96.8246 456.983 101.817 463.327C106.81 469.671 110.926 475.065 109.278 479.038C109.278 479.038 101.749 467.212 95.5998 467.048C89.4507 466.884 93.4983 459.876 100.238 452.763Z" fill="#048243"/>
<path opacity="0.1" d="M100.238 452.763C99.9399 453.172 99.7054 453.618 99.5417 454.09C93.5605 460.721 90.3709 466.913 96.1221 467.066C101.482 467.212 107.904 476.25 109.44 478.533C109.392 478.711 109.332 478.885 109.26 479.055C109.26 479.055 101.73 467.23 95.5811 467.066C89.4321 466.901 93.4983 459.876 100.238 452.763Z" fill="black"/>
<path d="M93.89 458.139C93.89 459.624 94.0641 460.827 94.2817 460.827C94.4993 460.827 94.6796 459.653 94.6796 458.139C94.6796 456.625 94.4558 457.353 94.2382 457.353C94.0206 457.353 93.89 456.654 93.89 458.139Z" fill="#FFD037"/>
<path d="M91.7139 459.912C93.0942 460.622 94.2941 461.05 94.3998 460.868C94.5055 460.686 93.4672 459.964 92.0869 459.254C90.7066 458.544 91.2538 459.061 91.1481 459.254C91.0424 459.448 90.3336 459.201 91.7139 459.912Z" fill="#FFD037"/>
<path d="M94.9781 478.504C94.9781 478.504 104.528 478.222 107.413 476.291C110.298 474.36 122.099 472.042 122.814 475.147C123.529 478.251 137.164 490.576 126.382 490.658C115.601 490.74 101.332 489.073 98.4598 487.424C95.5874 485.775 94.9781 478.504 94.9781 478.504Z" fill="#A8A8A8"/>
<path opacity="0.2" d="M126.569 489.578C115.788 489.66 101.519 487.993 98.6464 486.344C96.4578 485.083 95.5874 480.57 95.2951 478.492H94.9781C94.9781 478.492 95.5998 485.758 98.4536 487.412C101.307 489.067 115.595 490.728 126.376 490.646C129.485 490.646 130.567 489.578 130.505 488.029C130.076 488.979 128.888 489.56 126.569 489.578Z" fill="black"/>
<path d="M413.897 478.158C413.897 478.158 387.609 476.661 390.712 494.05C390.712 494.05 390.09 497.119 393.043 498.516C393.043 498.516 393.093 497.231 395.742 497.665C396.684 497.815 397.642 497.858 398.596 497.794C399.887 497.714 401.115 497.236 402.09 496.433V496.433C402.09 496.433 409.476 493.557 412.349 482.154C412.349 482.154 414.475 479.666 414.394 479.026L409.955 480.787C409.955 480.787 411.472 483.809 410.278 486.321C410.278 486.321 410.135 480.898 409.283 481.039C409.109 481.039 406.977 482.084 406.977 482.084C406.977 482.084 409.588 487.366 407.599 491.169C407.599 491.169 408.345 484.713 406.144 482.465L403.035 484.185C403.035 484.185 406.082 489.619 404.017 494.056C404.017 494.056 404.546 487.254 402.382 484.601L399.553 486.685C399.553 486.685 402.413 492.043 400.666 495.723C400.666 495.723 400.442 487.806 398.938 487.207C398.938 487.207 396.451 489.267 396.084 490.142C396.084 490.142 398.042 494.027 396.83 496.081C396.83 496.081 396.084 490.799 395.468 490.799C395.468 490.799 392.981 494.32 392.745 496.668C392.745 496.668 392.857 493.105 394.871 490.441C393.449 490.697 392.138 491.339 391.097 492.289C391.097 492.289 391.483 489.819 395.45 489.602C395.45 489.602 397.489 486.949 398.036 486.79C398.036 486.79 394.057 486.474 391.645 487.483C391.645 487.483 393.765 485.135 398.764 486.209L401.555 484.061C401.555 484.061 396.32 483.381 394.094 484.132C394.094 484.132 396.656 482.066 402.308 483.545L405.354 481.831C405.354 481.831 400.884 480.922 398.223 481.244C398.223 481.244 401.033 479.812 406.243 481.362L408.419 480.44C408.419 480.44 405.143 479.854 404.185 479.742C403.228 479.631 403.178 479.396 403.178 479.396C405.251 479.07 407.38 479.293 409.327 480.041C409.327 480.041 413.978 478.433 413.897 478.158Z" fill="#048243"/>
<path opacity="0.1" d="M395.792 503C406.066 503 414.394 501.67 414.394 500.03C414.394 498.39 406.066 497.061 395.792 497.061C385.518 497.061 377.189 498.39 377.189 500.03C377.189 501.67 385.518 503 395.792 503Z" fill="#048243"/>
<path d="M367.844 479.085C367.844 479.085 353.022 478.24 354.787 488.046C354.698 488.544 354.778 489.055 355.014 489.507C355.251 489.959 355.633 490.329 356.106 490.564C356.106 490.564 356.105 489.836 357.629 490.083C358.159 490.164 358.697 490.19 359.233 490.159C359.96 490.109 360.651 489.839 361.204 489.39V489.39C361.204 489.39 365.369 487.765 366.992 481.338C366.992 481.338 368.186 479.936 368.143 479.578L365.656 480.581C365.656 480.581 366.507 482.289 365.836 483.703C365.836 483.703 365.755 480.646 365.276 480.716C365.177 480.716 363.977 481.303 363.977 481.303C363.977 481.303 365.444 484.238 364.337 486.427C364.337 486.427 364.754 482.77 363.517 481.514L361.757 482.489C361.757 482.489 363.473 485.552 362.311 488.052C362.311 488.052 362.609 484.214 361.384 482.723L359.792 483.897C359.792 483.897 361.403 486.92 360.414 488.991C360.414 488.991 360.284 484.525 359.438 484.191C358.833 484.672 358.292 485.222 357.828 485.828C357.828 485.828 358.934 488.023 358.25 489.179C358.25 489.179 357.828 486.204 357.486 486.192C357.486 486.192 356.093 488.164 355.95 489.514C356.013 488.261 356.425 487.047 357.144 485.992C356.343 486.135 355.604 486.496 355.017 487.031C355.017 487.031 355.235 485.634 357.504 485.517C357.504 485.517 358.648 484.02 358.959 483.932C358.959 483.932 356.715 483.75 355.353 484.32C355.353 484.32 356.553 483.005 359.37 483.604L360.943 482.389C360.943 482.389 357.989 482.007 356.74 482.43C356.74 482.43 358.182 481.256 361.372 482.113L363.081 481.151C361.764 480.875 360.413 480.764 359.065 480.822C359.065 480.822 360.65 480.018 363.585 480.886L364.829 480.37C364.829 480.37 362.963 480.024 362.447 479.971C361.931 479.918 361.875 479.777 361.875 479.777C363.045 479.594 364.246 479.72 365.345 480.141C365.345 480.141 367.888 479.243 367.844 479.085Z" fill="#048243"/>
<path opacity="0.1" d="M357.635 493.093C363.428 493.093 368.124 492.345 368.124 491.421C368.124 490.497 363.428 489.748 357.635 489.748C351.842 489.748 347.146 490.497 347.146 491.421C347.146 492.345 351.842 493.093 357.635 493.093Z" fill="#048243"/>
<path d="M396.053 458.303C396.053 458.303 378.165 457.282 380.273 469.12C380.165 469.72 380.26 470.337 380.546 470.883C380.832 471.429 381.293 471.876 381.864 472.16C381.864 472.16 381.864 471.285 383.699 471.573C384.34 471.669 384.99 471.699 385.638 471.661C386.517 471.601 387.352 471.276 388.02 470.734V470.734C388.02 470.734 393.05 468.773 395.002 461.009C395.002 461.009 396.451 459.319 396.395 458.884L393.373 460.099C393.373 460.099 394.405 462.159 393.597 463.867C393.597 463.867 393.497 460.176 392.913 460.264C392.801 460.264 391.346 460.974 391.346 460.974C391.346 460.974 393.124 464.56 391.781 467.159C391.781 467.159 392.291 462.746 390.793 461.232L388.666 462.406C388.666 462.406 390.743 466.103 389.338 469.125C389.338 469.125 389.698 464.495 388.219 462.67L386.291 464.084C386.291 464.084 388.244 467.729 387.056 470.235C387.056 470.235 386.901 464.847 385.875 464.436C385.875 464.436 384.19 465.839 383.935 466.414C383.935 466.414 385.272 469.061 384.438 470.458C384.438 470.458 383.935 466.872 383.518 466.854C383.518 466.854 381.84 469.202 381.653 470.863C381.733 469.355 382.231 467.895 383.096 466.625C382.128 466.799 381.236 467.236 380.528 467.881C380.528 467.881 380.789 466.197 383.512 466.05C383.512 466.05 384.899 464.249 385.272 464.137C385.272 464.137 382.561 463.926 380.919 464.612C380.919 464.612 382.362 463.022 385.769 463.744L387.672 462.282C387.672 462.282 384.103 461.819 382.592 462.329C382.592 462.329 384.333 460.927 388.188 461.948L390.258 460.774C390.258 460.774 387.218 460.187 385.408 460.381C385.408 460.381 387.317 459.407 390.867 460.457L392.347 459.835C392.347 459.835 390.115 459.419 389.462 459.354C388.809 459.289 388.778 459.119 388.778 459.119C390.189 458.898 391.638 459.05 392.963 459.559C392.963 459.559 396.115 458.491 396.053 458.303Z" fill="#048243"/>
<path opacity="0.1" d="M383.736 475.211C390.731 475.211 396.401 474.308 396.401 473.193C396.401 472.078 390.731 471.174 383.736 471.174C376.741 471.174 371.071 472.078 371.071 473.193C371.071 474.308 376.741 475.211 383.736 475.211Z" fill="#048243"/>
<path d="M676.523 343.129V56.0702H85.0239V326.661C92.5781 332.612 101.662 337.618 111.137 341.732C115.804 343.763 120.571 345.619 125.437 347.302H669.466L676.523 343.129Z" fill="url(#paint0_linear)"/>
<path d="M675.379 343.246V64.2864H86.3171V327.266C93.8402 333.052 102.887 337.918 112.306 341.938C116.957 343.894 121.707 345.698 126.557 347.349H668.334L675.379 343.246Z" fill="white"/>
<path d="M675.379 56.8859H86.3233V71.64H675.379V56.8859Z" fill="#5A5773"/>
<path d="M98.0868 68.0777C100.319 68.0777 102.128 66.3698 102.128 64.263C102.128 62.1562 100.319 60.4483 98.0868 60.4483C95.8548 60.4483 94.0454 62.1562 94.0454 64.263C94.0454 66.3698 95.8548 68.0777 98.0868 68.0777Z" fill="white"/>
<path d="M108.967 68.0777C111.199 68.0777 113.009 66.3698 113.009 64.263C113.009 62.1562 111.199 60.4483 108.967 60.4483C106.735 60.4483 104.926 62.1562 104.926 64.263C104.926 66.3698 106.735 68.0777 108.967 68.0777Z" fill="white"/>
<path d="M119.848 68.0777C122.08 68.0777 123.889 66.3698 123.889 64.263C123.889 62.1562 122.08 60.4483 119.848 60.4483C117.616 60.4483 115.807 62.1562 115.807 64.263C115.807 66.3698 117.616 68.0777 119.848 68.0777Z" fill="white"/>
<path d="M334.158 104.065H236.854V161.778H334.158V104.065Z" fill="#048243"/>
<path opacity="0.2" d="M199.431 104.065H102.128V161.778H199.431V104.065Z" fill="#5A5773"/>
<path opacity="0.2" d="M468.884 104.065H371.581V161.778H468.884V104.065Z" fill="#5A5773"/>
<path opacity="0.2" d="M199.431 186.574H102.128V244.287H199.431V186.574Z" fill="#5A5773"/>
<path opacity="0.2" d="M334.158 186.574H236.854V244.287H334.158V186.574Z" fill="#5A5773"/>
<path opacity="0.2" d="M468.884 186.574H371.581V244.287H468.884V186.574Z" fill="#5A5773"/>
<path opacity="0.2" d="M199.431 269.077H102.128V326.79H199.431V269.077Z" fill="#5A5773"/>
<path opacity="0.2" d="M334.158 269.077H236.854V326.79H334.158V269.077Z" fill="#5A5773"/>
<path opacity="0.2" d="M468.884 269.077H371.581V326.79H468.884V269.077Z" fill="#5A5773"/>
<path d="M310.314 154.618L303.599 156.86L301.162 153.046C299.297 150.111 296.71 146.097 294.801 143.18C291.431 138.051 295.84 130.234 295.84 130.234C295.84 130.234 296.635 122.387 299.471 119.969C302.306 117.551 303.095 130.234 303.095 130.234C314.48 135.117 308.38 146.602 308.38 146.602L309.487 151.156L310.314 154.618Z" fill="#EFB7B9"/>
<path opacity="0.1" d="M310.314 154.618L303.599 156.86L301.162 153.046V152.711C301.162 152.711 305.01 150.217 309.499 151.156L310.314 154.618Z" fill="black"/>
<path d="M299.471 180.324L302.834 177.636L301.149 153.445C301.149 153.445 309.854 147.822 316.295 156.62C316.295 156.62 316.034 161.995 316.295 163.463C316.556 164.93 314.486 166.397 316.295 167.858C318.104 169.32 316.295 174.214 316.295 174.214C316.295 174.214 318.341 177.636 319.634 178.61C320.927 179.584 322.226 187.654 319.634 189.362C317.041 191.069 312.179 194.984 312.179 196.692C312.179 198.399 305.962 202.56 305.962 202.56L300.503 195.747L299.471 180.324Z" fill="#FF6484"/>
<path d="M226.726 327.172C214.179 322.148 216.965 309.877 219.327 303.697C219.8 302.445 220.354 301.222 220.987 300.035L228.026 296.003C228.026 296.003 229.462 299.46 230.998 304.096C234.56 314.883 238.658 331.955 226.726 327.172Z" fill="#EFB7B9"/>
<path d="M243.973 439.142C243.124 440.704 242.497 442.366 242.108 444.083C241.487 446.847 241.216 449.67 241.3 452.493C241.35 454.448 241.524 455.727 241.524 455.727L227.547 464.8C227.547 464.8 227.628 463.738 227.765 462.177C228.125 458.022 228.877 450.31 229.586 449.313C230.077 448.62 230.419 445.838 230.637 443.256C230.855 440.674 230.942 438.408 230.942 438.408C230.942 438.408 247.76 432.457 243.973 439.142Z" fill="#EFB7B9"/>
<path d="M276.982 445.65C276.982 445.65 276.982 448.174 276.883 451.108C276.783 454.043 276.597 457.505 276.205 459.119C275.844 460.598 275.819 463.315 275.888 465.821C275.981 468.756 276.205 471.397 276.205 471.397C276.205 471.397 261.936 458.662 263.391 457.652C263.782 457.382 264.168 456.296 264.522 454.853C264.957 453.092 265.349 450.744 265.641 448.749C265.99 446.372 266.207 444.459 266.207 444.459L276.982 445.65Z" fill="#EFB7B9"/>
<path opacity="0.1" d="M243.973 439.142C243.124 440.704 242.497 442.366 242.108 444.083C238.283 443.989 234.464 443.713 230.668 443.256C230.879 440.732 230.973 438.408 230.973 438.408C230.973 438.408 247.76 432.457 243.973 439.142Z" fill="black"/>
<path opacity="0.1" d="M276.982 445.65C276.982 445.65 276.982 448.174 276.883 451.108C272.431 452.182 267.855 450.034 265.641 448.761C265.99 446.384 266.207 444.471 266.207 444.471L276.982 445.65Z" fill="black"/>
<path d="M306.198 320.822C300.503 332.559 298.171 346.48 298.171 346.48L296.101 358.218C296.101 358.218 297.139 363.347 296.101 365.301C295.062 367.255 292.992 370.436 292.992 370.436C292.992 370.436 294.546 382.409 292.992 383.629C291.438 384.85 292.992 392.18 292.992 392.18L287.813 416.829L280.563 448.591C273.575 453.972 264.273 447.129 264.273 447.129L266.325 426.36C266.325 426.36 269.434 389.973 268.141 388.483C266.848 386.992 268.657 382.373 268.657 382.373C268.657 382.373 270.472 377.972 269.179 376.264C267.886 374.556 269.434 370.888 269.434 370.888C269.434 370.888 268.918 355.982 270.472 352.56C272.027 349.139 270.472 327.976 270.472 327.976L269.851 321.385L269.49 317.735L269.459 317.377C269.459 317.377 269.223 318.838 268.837 321.104C267.693 327.999 265.256 342.29 264.292 345.23C263.637 347.349 262.747 349.397 261.637 351.339C261.637 351.339 262.98 358.669 261.637 360.624C260.294 362.578 261.432 364.779 261.432 364.779C261.432 364.779 262.725 370.888 258.839 373.33C254.953 375.771 258.839 376.998 258.839 376.998C258.839 376.998 255.992 382.866 254.96 385.302C253.928 387.737 254.96 391.171 254.96 391.171L252.889 410.96C252.889 410.96 251.074 419.264 251.335 424.887C251.596 430.509 249.003 443.456 249.003 443.456C249.003 443.456 229.07 443.456 225.999 441.255C222.927 439.054 231.128 417.586 231.128 417.586C231.128 417.586 233.46 379.955 232.937 378.981C232.415 378.007 232.937 370.671 234.753 369.21C236.568 367.748 234.753 364.808 234.753 364.808C234.753 364.808 234.237 358.939 234.753 357.478C235.269 356.017 234.672 351.122 234.672 351.122C234.672 351.122 232.937 339.15 232.683 332.307C232.428 325.464 231.128 310.076 231.128 310.076C231.128 310.076 232.484 300.557 232.689 296.026C232.763 294.36 233.553 292.276 234.554 290.316C235.674 288.103 236.963 285.969 238.409 283.931C238.409 283.931 299.744 266.817 302.318 268.519C303.002 268.971 303.997 272.041 304.979 276.483C307.715 288.896 310.388 312.195 306.198 320.822Z" fill="#444053"/>
<path d="M268.408 171.479C278.273 171.479 286.271 163.931 286.271 154.618C286.271 145.306 278.273 137.757 268.408 137.757C258.543 137.757 250.545 145.306 250.545 154.618C250.545 163.931 258.543 171.479 268.408 171.479Z" fill="#A1616A"/>
<path opacity="0.1" d="M304.979 276.495C302.921 277.493 301.541 278.179 301.541 278.179C301.541 278.179 272.549 291.132 264.305 290.398C257.925 289.811 241.642 290.146 234.548 290.31C235.668 288.097 236.956 285.963 238.403 283.925C238.403 283.925 299.744 266.817 302.318 268.519C303.002 268.983 303.997 272.041 304.979 276.495Z" fill="black"/>
<path d="M255.979 181.544C255.979 181.544 239.435 184.009 235.53 186.427C231.626 188.845 223.891 193.517 223.891 203.535C223.891 213.553 222.082 223.817 221.043 226.746C220.005 229.674 237.352 253.378 237.352 253.378L231.134 289.301C231.134 289.301 256.004 288.567 264.286 289.301C272.568 290.034 301.547 277.082 301.547 277.082C301.547 277.082 318.633 268.531 322.258 268.279C325.882 268.026 315.008 249.464 315.008 249.464C315.008 249.464 298.177 219.415 301.025 214.527C303.873 209.638 305.962 202.555 305.962 202.555L302.853 177.636C302.853 177.636 298.196 176.169 294.31 178.856C290.424 181.544 277.224 180.077 277.224 180.077L255.979 181.544Z" fill="#FF6484"/>
<path opacity="0.1" d="M227.895 225.038L221.404 226.746L219.607 249.739C219.607 249.739 221.939 255.849 219.607 257.803C217.276 259.757 216.76 301.543 216.76 301.543C216.76 301.543 224.27 306.672 233.068 302.764C233.068 302.764 231.775 298.121 235.661 281.261C239.547 264.4 239.54 255.849 239.54 255.849C239.54 255.849 239.54 234.833 241.356 231.411C243.171 227.99 241.356 219.439 241.356 219.439C241.356 219.439 237.731 214.797 237.986 213.089C238.241 211.381 227.895 225.038 227.895 225.038Z" fill="black"/>
<path opacity="0.1" d="M230.998 304.114C227.186 305.325 223.037 305.183 219.327 303.714C219.8 302.462 220.354 301.239 220.987 300.052L228.026 296.02C228.026 296.02 229.487 299.477 230.998 304.114Z" fill="black"/>
<path d="M227.503 225.038L221.031 226.746L219.222 249.739C219.222 249.739 221.553 255.849 219.222 257.803C216.89 259.757 216.374 301.543 216.374 301.543C216.374 301.543 223.891 306.666 232.683 302.74C232.683 302.74 231.389 298.098 235.269 281.237C239.149 264.376 239.155 255.825 239.155 255.825C239.155 255.825 239.155 234.809 240.964 231.388C242.773 227.966 240.964 219.415 240.964 219.415C240.964 219.415 237.339 214.773 237.601 213.065C237.862 211.358 227.503 225.038 227.503 225.038Z" fill="#FF6484"/>
<path opacity="0.1" d="M293.775 228.7C293.775 228.7 290.412 256.066 280.569 261.201C280.569 261.201 302.573 255.338 293.775 228.7Z" fill="black"/>
<path opacity="0.1" d="M244.334 231.147C244.334 231.147 256.495 236.764 253.66 240.672C250.825 244.581 244.334 231.147 244.334 231.147Z" fill="black"/>
<path opacity="0.1" d="M244.334 242.386C244.334 242.386 252.1 249.962 250.552 252.65C249.003 255.338 244.334 242.386 244.334 242.386Z" fill="black"/>
<path opacity="0.1" d="M306.975 179.59C306.975 179.59 310.022 184.473 310.314 187.654C310.606 190.835 306.975 179.59 306.975 179.59Z" fill="black"/>
<path opacity="0.1" d="M306.975 172.994C306.975 172.994 308.505 171.767 312.409 172.994C316.314 174.22 306.975 172.994 306.975 172.994Z" fill="black"/>
<path opacity="0.1" d="M292.028 315.81C285.614 316.669 279.074 315.878 273.096 313.521L269.832 321.409L269.471 317.758C270.006 314.695 271.044 311.414 273.096 310.587C273.096 310.587 280.283 315.992 292.028 315.81Z" fill="black"/>
<path opacity="0.1" d="M238.925 326.074C238.925 326.074 254.848 329.191 259.312 328.639L238.925 326.074Z" fill="black"/>
<path opacity="0.1" d="M240.579 330.012C240.579 330.012 247.374 329.736 250.769 331.022L240.579 330.012Z" fill="black"/>
<path opacity="0.1" d="M241.356 332.671C244.457 333.293 247.604 333.685 250.769 333.845L241.356 332.671Z" fill="black"/>
<path opacity="0.1" d="M240.964 366.299C241.256 366.117 254.556 363.183 256.209 365.289L240.964 366.299Z" fill="black"/>
<path opacity="0.1" d="M240.964 370.149C240.964 370.149 252.516 368.864 252.808 370.149C253.101 371.434 240.964 370.149 240.964 370.149Z" fill="black"/>
<path opacity="0.1" d="M240.964 373.629C240.964 373.629 253.293 371.223 254.748 371.81C256.203 372.397 240.964 373.629 240.964 373.629Z" fill="black"/>
<path opacity="0.1" d="M241.549 455.733L227.572 464.806C227.572 464.806 227.653 463.744 227.789 462.183C230.898 454.964 234.946 451.155 234.946 451.155C238.098 450.381 240.088 451.097 241.325 452.499C241.375 454.448 241.549 455.733 241.549 455.733Z" fill="black"/>
<path d="M242.91 463.885C240.935 468.138 239.941 472.739 239.994 477.383C240.073 481.191 239.05 484.946 237.035 488.246C236.743 488.711 236.415 489.154 236.052 489.572C236.052 489.572 226.341 489.496 222.94 486.837C222.558 486.552 222.246 486.192 222.026 485.781C220.08 482.119 225.812 468.098 225.812 468.098C228.821 457.288 234.933 451.513 234.933 451.513C245.82 448.855 242.91 463.885 242.91 463.885Z" fill="#444053"/>
<path opacity="0.1" d="M237.035 488.217C236.743 488.681 236.415 489.125 236.052 489.543C236.052 489.543 226.341 489.467 222.94 486.808C224.612 481.585 229.947 465.78 232.446 468.468C234.796 470.992 236.432 483.134 237.035 488.217Z" fill="black"/>
<path d="M235.704 469.448L235.027 493.123H238.284C238.284 493.123 238.813 472.353 240.268 469.448C241.723 466.543 235.704 469.448 235.704 469.448Z" fill="#444053"/>
<path opacity="0.1" d="M276.205 471.397C276.205 471.397 261.936 458.661 263.391 457.652C263.782 457.382 264.168 456.296 264.522 454.853C267.264 454.401 271.983 455.481 275.888 465.821C275.981 468.756 276.205 471.397 276.205 471.397Z" fill="black"/>
<path d="M278.337 485.599C278.228 485.644 278.113 485.675 277.995 485.693C276.317 485.969 270.13 485.81 266.667 485.693C266.033 485.673 265.431 485.422 264.989 484.991C264.547 484.561 264.3 483.986 264.298 483.387C264.298 482.506 264.298 481.432 264.224 480.288C264.062 476.673 263.602 472.371 262.228 471.403C259.797 469.642 257.876 463.668 262.228 456.103C262.228 456.103 270.572 450.087 276.59 468.169C276.59 468.169 277.175 473.327 279.792 475.159C282.41 476.99 279.506 485.077 278.337 485.599Z" fill="#444053"/>
<path opacity="0.1" d="M277.983 485.693C276.304 485.969 270.118 485.81 266.655 485.693C266.02 485.673 265.419 485.422 264.977 484.991C264.535 484.561 264.287 483.986 264.286 483.387C264.286 482.506 264.286 481.432 264.211 480.288C265.262 475.91 266.773 471.403 268.719 470.376C268.731 470.37 274.619 469.742 277.983 485.693Z" fill="black"/>
<path d="M263.285 469.841L264.852 489.543H266.841V468.163L263.285 469.841Z" fill="#444053"/>
<path opacity="0.1" d="M268.147 127.751C262.507 128.148 257.047 129.803 252.218 132.581C250.974 133.291 249.731 134.154 249.215 135.428C248.767 136.531 248.954 137.775 248.972 138.949C249.14 149.055 237.203 156.702 237.576 166.802C237.725 170.81 239.857 174.543 240.249 178.54C240.902 185.206 236.724 191.339 232.72 196.862C236.845 197.099 240.908 195.827 244.067 193.311C248.292 206.604 248.838 220.697 245.652 234.246H251.378C251.944 234.207 252.512 234.273 253.051 234.439C253.553 234.665 254.004 234.982 254.375 235.373C259.729 240.402 263.316 247.838 261.27 254.704L273.457 250.391C276.373 249.358 279.332 248.307 281.869 246.605C284.406 244.904 286.532 242.433 287.067 239.534C287.396 237.773 287.291 235.672 288.826 234.651C289.583 234.271 290.39 233.989 291.226 233.812C294.571 232.696 296.051 229.046 296.735 225.76C297.568 221.727 297.829 217.609 297.512 213.511C296.971 206.645 294.82 199.673 296.592 192.971C297.593 189.209 299.819 185.705 299.999 181.82C300.291 175.417 294.988 169.901 294.198 163.533C293.645 159.096 295.342 154.607 294.789 150.17C294.482 147.88 293.594 145.694 292.201 143.796C290.808 141.899 288.951 140.347 286.787 139.272C285.289 138.544 283.678 138.057 282.198 137.253C278.822 135.404 276.665 132.077 273.6 129.788C270.534 127.499 265.43 126.636 263.123 129.612L268.147 127.751Z" fill="black"/>
<path d="M268.147 127.018C262.507 127.414 257.047 129.069 252.218 131.848C250.974 132.558 249.731 133.42 249.215 134.694C248.767 135.797 248.954 137.042 248.972 138.215C249.14 148.321 237.203 155.968 237.576 166.074C237.725 170.077 239.857 173.809 240.249 177.812C240.902 184.479 236.724 190.612 232.72 196.14C236.844 196.368 240.904 195.098 244.067 192.589C248.291 205.878 248.837 219.967 245.652 233.512H251.378C251.944 233.475 252.513 233.543 253.051 233.712C253.554 233.933 254.005 234.248 254.375 234.639C259.729 239.674 263.316 247.104 261.27 253.971L273.457 249.657C276.373 248.624 279.332 247.574 281.869 245.872C284.406 244.17 286.532 241.699 287.067 238.8C287.396 237.039 287.291 234.938 288.826 233.917C289.583 233.537 290.39 233.255 291.226 233.078C294.571 231.963 296.051 228.313 296.735 225.026C297.575 220.991 297.843 216.868 297.531 212.766C296.99 205.9 294.839 198.928 296.611 192.225C297.612 188.464 299.837 184.96 300.018 181.075C300.31 174.672 295.006 169.155 294.217 162.788C293.663 158.351 295.361 153.867 294.807 149.425C294.499 147.135 293.611 144.949 292.218 143.052C290.825 141.155 288.969 139.603 286.806 138.526C285.307 137.799 283.697 137.311 282.217 136.513C278.841 134.659 276.684 131.331 273.618 129.042C270.553 126.754 265.449 125.891 263.142 128.866L268.147 127.018Z" fill="#925978"/>
<g opacity="0.1">
<path opacity="0.1" d="M248.96 135.774C248.935 136 248.922 136.227 248.923 136.455C248.941 136.232 248.954 136.003 248.96 135.774Z" fill="black"/>
<path opacity="0.1" d="M294.148 159.267C294.372 156.156 295.106 153.034 294.832 149.935C294.627 153.046 293.894 156.168 294.148 159.267Z" fill="black"/>
<path opacity="0.1" d="M240.249 174.731C239.889 171.092 238.092 167.688 237.669 164.055C237.585 164.721 237.553 165.392 237.576 166.063C237.725 170.024 239.808 173.727 240.231 177.671C240.333 176.694 240.34 175.709 240.249 174.731Z" fill="black"/>
<path opacity="0.1" d="M296.635 189.185C296.053 191.574 295.844 194.029 296.014 196.474C296.076 195.048 296.284 193.631 296.635 192.243C297.636 188.481 299.862 184.978 300.043 181.092C300.072 180.402 300.039 179.711 299.943 179.027C299.458 182.519 297.525 185.77 296.635 189.185Z" fill="black"/>
<path opacity="0.1" d="M244.067 189.502C241.474 191.554 238.264 192.785 234.89 193.024C234.181 194.068 233.447 195.089 232.72 196.099C236.844 196.327 240.904 195.057 244.067 192.548C246.338 199.683 247.556 207.078 247.685 214.527C247.87 206.058 246.649 197.615 244.067 189.502V189.502Z" fill="black"/>
<path opacity="0.1" d="M296.754 221.951C296.07 225.237 294.59 228.888 291.245 229.997C290.408 230.173 289.6 230.457 288.845 230.842C287.309 231.863 287.415 233.976 287.085 235.725C286.551 238.624 284.431 241.089 281.888 242.767C279.345 244.446 276.391 245.526 273.475 246.559L261.849 250.667C261.788 251.768 261.601 252.861 261.289 253.924L273.475 249.61C276.391 248.577 279.351 247.527 281.888 245.825C284.424 244.123 286.551 241.652 287.085 238.753C287.415 236.992 287.309 234.891 288.845 233.87C289.602 233.49 290.409 233.208 291.245 233.031C294.59 231.916 296.07 228.266 296.754 224.979C297.461 221.559 297.756 218.074 297.63 214.591C297.548 217.063 297.255 219.524 296.754 221.951V221.951Z" fill="black"/>
<path opacity="0.1" d="M254.394 231.546C254.024 231.154 253.573 230.836 253.07 230.613C252.531 230.447 251.963 230.379 251.397 230.414H246.317C246.118 231.435 245.907 232.456 245.696 233.471H251.422C251.988 233.434 252.556 233.502 253.094 233.671C253.598 233.892 254.049 234.207 254.419 234.598C258.336 238.284 261.302 243.249 261.811 248.343C262.439 242.251 259.094 235.983 254.394 231.546Z" fill="black"/>
</g>
<path opacity="0.1" d="M225.986 251.547C225.986 251.547 230.612 249.716 231.644 251.547C232.676 253.378 225.986 251.547 225.986 251.547Z" fill="black"/>
<path opacity="0.1" d="M227.622 254.687C227.622 254.687 232.247 252.856 233.286 254.687C234.324 256.518 227.622 254.687 227.622 254.687Z" fill="black"/>
<path opacity="0.1" d="M514.315 17.7354C514.315 17.7354 490.658 16.3915 493.449 32.0376C493.449 32.0376 492.896 34.8018 495.551 36.0577C495.551 36.0577 495.594 34.884 497.976 35.2889C498.824 35.4236 499.686 35.463 500.543 35.4063C501.702 35.3306 502.802 34.8999 503.677 34.1797V34.1797C503.677 34.1797 510.324 31.5916 512.91 21.333C512.91 21.333 514.825 19.0911 514.775 18.516L510.784 20.1299C510.784 20.1299 512.145 22.8471 511.07 25.1066C511.07 25.1066 510.945 20.2238 510.174 20.3412C510.019 20.3412 508.104 21.2802 508.104 21.2802C508.104 21.2802 510.448 26.0163 508.676 29.4612C508.676 29.4612 509.347 23.6277 507.37 21.6264L504.548 23.2051C504.548 23.2051 507.289 28.0938 505.43 32.0846C505.43 32.0846 505.909 25.9634 503.957 23.5807L501.408 25.4529C501.408 25.4529 503.988 30.2476 502.434 33.5576C502.434 33.5576 502.228 26.4271 500.873 25.893C500.873 25.893 498.647 27.7475 498.311 28.5105C498.311 28.5105 500.071 32.0317 498.977 33.8511C498.977 33.8511 498.305 29.1091 497.733 29.0856C497.733 29.0856 495.514 32.2313 495.283 34.3675C495.391 32.3742 496.049 30.4421 497.192 28.7628C495.912 28.9916 494.731 29.5713 493.798 30.4296C493.798 30.4296 494.139 28.2053 497.739 28.0058C497.739 28.0058 499.574 25.6231 500.065 25.4763C500.065 25.4763 496.483 25.1946 494.314 26.1043C494.314 26.1043 496.222 24.0033 500.724 24.9305L503.211 22.9938C503.211 22.9938 498.498 22.407 496.496 23.0584C496.496 23.0584 498.796 21.2039 503.888 22.5537L506.624 21.0102C506.624 21.0102 502.608 20.1886 500.214 20.4879C500.214 20.4879 502.738 19.2026 507.426 20.5935L509.385 19.766C509.385 19.766 506.438 19.2202 505.58 19.1322C504.722 19.0442 504.672 18.8211 504.672 18.8211C506.536 18.5282 508.45 18.7315 510.199 19.408C510.199 19.408 514.384 17.9819 514.315 17.7354Z" fill="#048243"/>
<path opacity="0.1" d="M480.598 5.04715C480.598 5.04715 460.702 17.2014 472.77 28.2405C472.77 28.2405 474.057 30.7758 476.986 30.3063C476.986 30.3063 476.289 29.3438 478.459 28.3285C479.228 27.9629 479.948 27.5118 480.604 26.9846C481.49 26.2754 482.108 25.3135 482.364 24.2439V24.2439C482.364 24.2439 486.094 18.4338 481.742 8.72687C481.742 8.72687 481.879 5.85117 481.456 5.42862L479.255 8.94988C479.255 8.94988 482.059 10.376 482.612 12.7939C482.612 12.7939 479.448 8.93814 478.882 9.46046C478.77 9.5661 477.8 11.3795 477.8 11.3795C477.8 11.3795 482.668 13.8796 483.396 17.6415C483.396 17.6415 480.287 12.565 477.421 12.0662L476.127 14.8832C476.127 14.8832 481.412 17.2894 482.42 21.5442C482.42 21.5442 478.956 16.3445 475.891 15.517L475.021 18.4514C475.021 18.4514 480.119 20.8928 480.934 24.4375C480.934 24.4375 476.295 18.8153 474.865 19.1557C474.865 19.1557 474.244 21.8905 474.443 22.6769C474.443 22.6769 478.061 24.508 478.335 26.609C478.335 26.609 474.816 23.164 474.362 23.4516C474.362 23.4516 474.548 27.2252 475.711 29.0915C474.549 27.4252 473.867 25.5014 473.734 23.5103C472.846 24.4105 472.258 25.537 472.043 26.7498C472.043 26.7498 470.923 24.7662 473.703 22.5948C473.703 22.5948 473.703 19.6604 473.982 19.2554C473.982 19.2554 470.923 21.0161 469.742 22.9762C469.742 22.9762 469.966 20.2179 474.188 18.469L474.996 15.5053C474.996 15.5053 470.818 17.6533 469.63 19.3141C469.63 19.3141 470.32 16.5323 475.263 14.7717L476.507 11.9958C476.507 11.9958 472.776 13.5862 471.011 15.1649C471.011 15.1649 472.254 12.7118 476.892 11.2152L477.949 9.45459C477.949 9.45459 475.232 10.6636 474.486 11.0744C473.74 11.4852 473.56 11.3326 473.56 11.3326C474.877 10.0533 476.545 9.14499 478.378 8.70926C478.378 8.70926 480.809 5.21148 480.598 5.04715Z" fill="#048243"/>
<path opacity="0.1" d="M450.319 19.2085C450.319 19.2085 438.425 38.5754 454.484 43.2293C454.484 43.2293 456.853 44.9372 459.235 43.2293C459.235 43.2293 458.159 42.6777 459.601 40.8408C460.103 40.1851 460.52 39.476 460.845 38.728C461.294 37.716 461.384 36.5936 461.1 35.5295V35.5295C461.1 35.5295 461.628 28.757 453.079 21.9668C453.079 21.9668 451.836 19.3493 451.214 19.1557L450.947 23.2638C450.947 23.2638 454.13 23.3342 455.79 25.2533C455.79 25.2533 451.115 23.1699 450.878 23.8683C450.829 24.0091 450.835 26.0397 450.835 26.0397C450.835 26.0397 456.424 26.1982 458.911 29.2382C458.911 29.2382 453.689 26.0515 450.909 26.8261L451.108 29.8896C451.108 29.8896 456.971 29.7723 459.912 33.1351C459.912 33.1351 454.317 29.9835 451.208 30.5587L451.83 33.5459C451.83 33.5459 457.55 33.5459 459.974 36.3512C459.974 36.3512 453.135 33.3229 452.022 34.2208C452.022 34.2208 452.775 36.9322 453.347 37.5601C453.347 37.5601 457.45 37.6423 458.706 39.397C458.706 39.397 453.912 37.8301 453.645 38.2878C453.645 38.2878 455.628 41.5685 457.562 42.7305C455.727 41.7487 454.195 40.3329 453.117 38.6224C452.759 39.8042 452.776 41.059 453.166 42.2317C453.166 42.2317 451.214 40.9464 452.644 37.8183C452.644 37.8183 451.214 35.2009 451.295 34.7255C451.295 34.7255 449.43 37.6188 449.305 39.8548C449.305 39.8548 448.174 37.3019 451.096 33.9391L450.393 30.946C450.393 30.946 447.701 34.6492 447.44 36.6387C447.44 36.6387 446.719 33.8628 450.281 30.1831L450.045 27.1841C450.045 27.1841 447.471 30.2066 446.675 32.3604C446.675 32.3604 446.588 29.649 450.014 26.3214L450.107 24.2967C450.107 24.2967 448.242 26.5327 447.801 27.2311C447.359 27.9295 447.098 27.8297 447.098 27.8297C447.658 26.1241 448.709 24.5985 450.132 23.4223C450.132 23.4223 450.58 19.2613 450.319 19.2085Z" fill="#048243"/>
<path d="M552.441 239.98C550.681 239.98 548.961 240.472 547.498 241.395C546.035 242.318 544.894 243.629 544.221 245.164C543.547 246.699 543.371 248.387 543.714 250.016C544.058 251.645 544.905 253.142 546.149 254.316C547.394 255.491 548.979 256.291 550.705 256.615C552.431 256.939 554.22 256.772 555.845 256.137C557.471 255.501 558.861 254.425 559.838 253.044C560.816 251.663 561.338 250.039 561.338 248.378C561.331 246.152 560.392 244.02 558.725 242.446C557.058 240.873 554.798 239.986 552.441 239.98V239.98ZM526.427 174.079V182.477H535.324L551.34 213.101L544.644 223.389C543.913 224.605 543.53 225.981 543.531 227.379C543.531 233.002 547.604 235.778 553.125 235.778H605.146V227.702H554.213C554.064 227.711 553.915 227.689 553.776 227.64C553.637 227.59 553.511 227.513 553.406 227.414C553.3 227.314 553.219 227.195 553.166 227.064C553.113 226.932 553.091 226.792 553.1 226.652C553.217 226.288 553.375 225.938 553.572 225.607L558.018 218.981H591.163C592.765 218.994 594.339 218.589 595.712 217.811C597.085 217.033 598.205 215.913 598.947 214.574L614.97 188.569C615.282 187.909 615.435 187.191 615.417 186.468C615.411 185.928 615.29 185.394 615.061 184.899C614.833 184.403 614.501 183.956 614.086 183.584C613.671 183.212 613.181 182.922 612.645 182.732C612.109 182.542 611.538 182.455 610.966 182.477H545.117L540.889 174.079H526.427ZM596.243 239.98C594.483 239.981 592.764 240.474 591.301 241.398C589.839 242.321 588.7 243.633 588.027 245.168C587.355 246.703 587.179 248.391 587.523 250.02C587.867 251.649 588.715 253.144 589.96 254.318C591.204 255.492 592.79 256.292 594.515 256.615C596.241 256.939 598.03 256.772 599.655 256.136C601.281 255.5 602.67 254.424 603.647 253.043C604.624 251.662 605.146 250.039 605.146 248.378C605.14 246.151 604.199 244.018 602.531 242.444C600.862 240.87 598.601 239.984 596.243 239.98V239.98Z" fill="#048243"/>
<path d="M584.859 197.314H577.398V190.271H571.802V197.314H564.341V202.596H571.802V209.638H577.398V202.596H584.859V197.314Z" fill="white"/>
</g>
<defs>
<linearGradient id="paint0_linear" x1="380.77" y1="347.302" x2="380.77" y2="56.0702" gradientUnits="userSpaceOnUse">
<stop stop-color="#808080" stop-opacity="0.25"/>
<stop offset="0.54" stop-color="#808080" stop-opacity="0.12"/>
<stop offset="1" stop-color="#808080" stop-opacity="0.1"/>
</linearGradient>
<clipPath id="clip0">
<rect width="694" height="503" fill="white"/>
</clipPath>
</defs>
</svg>
